<svg viewBox="0 0 24 24" xmlns="http://www.w3.org/2000/svg"><path d="M1.76 12v10.24h20.48V1.76H1.76V12m19.4 0v9.16h-12V2.84h12V12m-2.883-6.508c-.455.13-.864.488-1.099.963-.428.868-.289 1.81.359 2.416.333.312.546.388 1.004.359.365-.023.627-.129.927-.374l.167-.138.013.171c.01.141.031.18.122.223.091.043.129.043.22 0l.11-.053.01-1.764.011-1.764-.251-.026c-.562-.059-1.408-.066-1.593-.013M19.62 6.86v.92l-.112.24c-.212.453-.63.74-1.076.74-.376 0-.67-.22-.876-.656-.102-.214-.116-.289-.116-.61 0-.739.32-1.318.848-1.533.051-.02.371-.033.712-.029l.62.008v.92M5.665 9.997c.09.041.216.142.28.226.098.129.115.187.115.401 0 .325-.088.452-.361.522l-.195.05-.127-.149c-.111-.129-.349-.268-.587-.343-.1-.031-.093-.317.011-.486.096-.156.364-.298.559-.297.077 0 .214.034.305.076m-1.227.027c.159.064.16.064.101.178a.82.82 0 0 0-.059.306c0 .192 0 .192-.219.306-.191.1-.235.109-.346.07a.851.851 0 0 0-.222-.044c-.191 0-.219-.4-.043-.624a.843.843 0 0 1 .519-.255.885.885 0 0 1 .269.063m7.836.189a1.69 1.69 0 0 0-.38.179c-.169.11-.196.117-.208.057-.025-.12-.091-.169-.228-.169-.277 0-.258-.132-.258 1.767 0 1.108.015 1.746.041 1.796.054.101.377.112.415.014.013-.035.024-.626.024-1.314v-1.251l.122-.168c.228-.315.65-.512 1.005-.471.334.04.49.151.64.455l.133.27.02 1.229c.013.825.035 1.244.065 1.274.024.024.123.038.22.032l.175-.013.02-1.2c.02-1.163.024-1.206.116-1.394.205-.419.546-.642.984-.644.358-.002.55.088.703.329.163.257.196.482.202 1.341.002.422.016.948.03 1.168l.025.4h.2c.189 0 .201-.006.225-.12.039-.184.037-1.752-.004-2.18-.049-.527-.127-.754-.339-.99-.261-.29-.577-.422-1.021-.425-.483-.004-.701.08-1.038.397l-.268.254-.068-.115c-.095-.161-.353-.356-.59-.446-.265-.1-.723-.13-.963-.062m6.296.085c-.512.16-.973.662-1.151 1.252a2.325 2.325 0 0 0 .121 1.545c.143.303.475.639.768.776.213.1.272.109.712.108.434-.001.502-.011.709-.107.445-.207.753-.593.893-1.117.086-.325.075-.932-.023-1.25-.165-.534-.663-1.066-1.127-1.204-.249-.074-.67-.075-.902-.003m-11.666.298c.537.244.473 1.075-.091 1.187-.103.021-.12.009-.165-.116-.058-.161-.322-.415-.491-.474-.11-.038-.113-.045-.06-.148.031-.059.069-.177.085-.261.022-.119.055-.164.153-.207a.7.7 0 0 1 .569.019m12.565.21c.203.096.474.388.611.658.091.178.1.242.1.696 0 .493-.002.503-.137.752-.233.43-.54.612-1.032.612-.509 0-.821-.203-1.047-.684-.094-.199-.104-.267-.104-.7 0-.446.008-.495.11-.689.353-.669.928-.917 1.499-.645m-14.328.212c.204.155.299.328.299.542 0 .354-.24.571-.632.571-.53 0-.884-.607-.583-1.001.14-.184.307-.254.562-.238.151.01.247.044.354.126m-1.208.112c-.018.05-.033.207-.033.35 0 .206.019.286.09.387l.091.127-.085.144c-.079.134-.095.142-.231.118-.4-.071-.611-.289-.638-.66-.016-.231-.013-.239.143-.396.155-.155.169-.16.428-.16.26 0 .267.002.235.09m2.384.308c.177.126.299.403.263.595-.057.307-.297.487-.646.487-.239 0-.407-.096-.512-.291-.07-.13-.072-.152-.018-.217a.72.72 0 0 0 .156-.452c0-.202.073-.246.382-.23.176.009.278.038.375.108m1.283.611a.445.445 0 0 1 .068.316c-.045.336-.27.515-.648.515-.254-.001-.409-.07-.525-.235-.057-.081-.052-.101.059-.269.067-.1.133-.235.147-.299.016-.076.05-.117.096-.117.039 0 .15-.053.246-.118l.175-.117.146.082a.73.73 0 0 1 .236.242m-2.686.242c.102-.024.222-.055.266-.069.112-.037.22.157.22.395 0 .348-.353.59-.737.504-.411-.093-.654-.511-.485-.837l.058-.112.246.081c.208.068.276.074.432.038m-1.188.134c.13.022.15.041.174.168.039.209.114.334.299.501.09.082.152.168.138.191-.042.068-.282.155-.426.154a.814.814 0 0 1-.569-.293.54.54 0 0 1-.023-.625c.09-.125.147-.139.407-.096m2.534.313c.443.184.368.856-.109.984-.392.106-.831-.158-.831-.499 0-.145.225-.494.332-.515.197-.038.479-.025.608.03m-1.104.638c.122.111.182.364.121.51-.103.249-.432.391-.726.312-.239-.065-.471-.305-.471-.489 0-.112.018-.145.09-.163a.763.763 0 0 0 .223-.134c.118-.099.167-.112.406-.112.212 0 .291.017.357.076m13.199 1.579c-.465.099-.933.488-1.173.973-.432.875-.295 1.815.354 2.422.301.282.518.37.912.37.354 0 .663-.109.958-.338l.23-.178.012.167c.01.14.031.178.125.222.09.043.136.045.23.006l.117-.049V15.011l-.23-.024c-.42-.043-1.388-.064-1.535-.032m-3.347.053c-.036.036-.048.491-.048 1.801v1.753l.103.039c.144.055.296.006.34-.109.02-.053.037-.488.037-.966 0-.657.015-.928.062-1.108.112-.428.351-.74.708-.922.184-.094.19-.103.19-.275 0-.251-.081-.286-.358-.158-.117.054-.298.17-.402.257l-.19.159-.019-.223c-.011-.131-.041-.238-.075-.259-.081-.052-.292-.045-.348.011m4.542.417c.09.024.09.027.09.855 0 1.047-.046 1.24-.379 1.581-.268.275-.484.377-.798.378-.426.002-.685-.186-.909-.659-.273-.575-.064-1.564.407-1.932.276-.215.39-.244.959-.246.297 0 .58.01.63.023" fill-rule="evenodd"/></svg>