<svg viewBox="0 0 24 24" xmlns="http://www.w3.org/2000/svg"><path d="M.8 12v3h6.04V9H.8v3m5.68 0v2.68H3V9.32h3.48V12m4.884-1.519c-.214.117-.217.118-.273.039-.037-.054-.101-.08-.194-.08h-.138l.011 1.45.01 1.45.118.013c.212.025.222-.026.222-1.141V11.2l.147-.163c.356-.394.862-.458 1.162-.148.209.217.223.292.249 1.383.025 1.093.024 1.086.247 1.087l.105.001.029-1.01c.033-1.117.049-1.192.309-1.411.4-.337.957-.303 1.186.073.111.183.133.374.161 1.407l.025.921.123.012c.221.022.227-.01.207-1.101-.02-1.103-.055-1.3-.278-1.554-.198-.225-.401-.309-.8-.329-.41-.021-.583.044-.911.339-.111.099-.201.163-.201.141 0-.086-.334-.365-.509-.425a1.78 1.78 0 0 0-.488-.062c-.26 0-.333.017-.519.12m-3.014-.02c-.275.089-.667.468-.807.78-.302.673-.197 1.425.262 1.884.42.42 1.062.434 1.563.033a.869.869 0 0 1 .17-.118c.012 0 .022.072.022.16 0 .154.005.16.132.16.073 0 .154-.022.18-.048.062-.062.07-2.814.007-2.852-.022-.014-.333-.033-.69-.043-.511-.014-.689-.004-.839.044m8.318-.003c-.377.134-.714.48-.869.892-.073.195-.084.294-.072.65.017.523.123.771.458 1.077.278.254.541.341.952.314.683-.045 1.12-.466 1.221-1.174.047-.336-.012-.784-.14-1.044-.132-.269-.512-.623-.762-.708-.229-.078-.58-.081-.788-.007m4.956.002c-.309.119-.64.436-.803.769-.307.626-.193 1.439.264 1.896.42.42 1.062.434 1.563.033a.869.869 0 0 1 .17-.118c.012 0 .022.072.022.16 0 .154.005.16.132.16.073 0 .154-.022.18-.048.063-.063.069-2.814.007-2.853-.023-.014-.342-.033-.71-.042-.532-.014-.701-.005-.825.043m-2.541.055c-.058.107-.059 2.66-.002 2.768.047.087.208.103.27.027.022-.028.049-.389.06-.81.022-.851.066-1.064.281-1.348.072-.095.215-.217.319-.272.174-.092.189-.112.189-.25 0-.134-.011-.15-.102-.15-.143 0-.374.128-.538.299l-.14.146-.02-.232c-.02-.228-.023-.233-.147-.245-.095-.009-.139.008-.17.067m-14.686.162c-.156.155-.166.363-.018.363.054 0 .161.055.238.123.184.162.376.153.458-.02.187-.392-.369-.775-.678-.466m-.72.04c-.212.212-.13.403.173.403.185 0 .26-.069.306-.279.046-.209.02-.239-.209-.24-.116-.001-.181.027-.27.116m5.862.823c-.001.707-.008.772-.09.929-.277.525-.785.747-1.211.53-.215-.11-.429-.437-.476-.729-.075-.459.077-.983.364-1.258.228-.218.355-.251.914-.241l.5.009-.001.76m7.893-.704c.208.107.345.265.475.544.092.2.111.294.11.56-.001.675-.38 1.104-.983 1.11-.452.005-.821-.3-.916-.758-.06-.291-.031-.752.058-.924.09-.174.333-.442.484-.534.166-.102.572-.1.772.002m5.387.684c-.001.661-.01.759-.084.92-.121.264-.286.439-.513.545-.551.257-1.061-.055-1.185-.721-.079-.431.082-.976.369-1.252.228-.218.355-.251.914-.241l.5.009-.001.74m-17.498-.604c-.067.018-.118.078-.158.182-.055.146-.054.159.018.199.108.06.322.272.345.34.015.047.04.044.143-.017.34-.201.241-.62-.169-.713a.441.441 0 0 0-.179.009m-1.295.302c-.12.111-.135.249-.048.419.058.112.274.243.4.243a.442.442 0 0 0 .334-.219c.077-.168.057-.26-.088-.405-.114-.114-.165-.136-.314-.136-.134 0-.205.024-.284.098m-.451-.03c-.124.024-.265.191-.265.313a.43.43 0 0 0 .426.419c.142 0 .192-.109.116-.255a.523.523 0 0 1-.042-.289c.019-.162-.022-.231-.123-.211a9.901 9.901 0 0 0-.112.023m1.275.217c-.028.028-.05.097-.05.154a.384.384 0 0 1-.061.19c-.057.081-.053.096.053.215.091.102.144.127.273.127.202 0 .328-.067.379-.2.092-.244-.082-.488-.372-.519-.11-.012-.19 0-.222.033m.841.281a.752.752 0 0 0-.217.258l-.089.178.083.084a.48.48 0 0 0 .266.103c.163.019.195.008.304-.101.162-.162.164-.332.005-.491-.135-.135-.177-.139-.352-.031m-1.735.281c-.022.042-.017.124.014.22.096.295.522.382.708.146.092-.116.102-.205.04-.341-.039-.086-.066-.092-.384-.092-.279 0-.348.012-.378.067m-.539.131c-.148.226.084.542.398.542a.507.507 0 0 0 .246-.056c.073-.053.071-.059-.047-.159a.736.736 0 0 1-.177-.234c-.064-.158-.104-.19-.246-.19a.198.198 0 0 0-.174.097m1.476.09c-.113.022-.232.302-.174.411.19.355.759.299.77-.076.003-.105-.025-.162-.123-.25-.125-.111-.237-.131-.473-.085m-.693.39-.19.107c-.122.065-.113.168.027.324.1.113.143.131.303.131.157 0 .203-.019.287-.117.078-.09.095-.143.076-.239a.409.409 0 0 0-.074-.171c-.084-.081-.319-.1-.429-.035" fill-rule="evenodd"/></svg>