<svg viewBox="0 0 24 24" xmlns="http://www.w3.org/2000/svg"><path d="M11.001 3.581a2.681 2.681 0 0 0-.677.242c-.613.304-1.039.799-1.221 1.417-.082.278-.197 1.203-.155 1.239.018.015.279.075.582.134.964.186 1.557.488 2.04 1.037.587.668.602.674 1.384.578.671-.082.812-.121.979-.267.155-.137.436-.709.531-1.081.096-.378.062-1.004-.075-1.393-.349-.992-1.226-1.72-2.294-1.907a2.797 2.797 0 0 0-1.094.001m-4.58.141a2.575 2.575 0 0 0-.969.354c-.464.301-.871.86-1.032 1.417-.134.462-.059 1.08.163 1.343.119.142.228.177.877.287.264.044.59.108.724.141.236.058.253.056.5-.037a6.917 6.917 0 0 0 1.107-.555c.265-.182.291-.245.308-.758.017-.512.089-.808.337-1.386l.159-.372-.096-.036a21.825 21.825 0 0 1-.382-.159c-.558-.237-1.163-.323-1.696-.239m9.519 2.052c-.594.153-.955.432-.999.773-.05.379-.112.6-.312 1.103-.111.28-.195.515-.186.522.009.007.23.105.49.219.59.258.955.499 1.346.887.353.351.602.709.718 1.033.171.478.209.502.619.389.918-.253 1.539-.878 1.768-1.78.048-.191.06-.365.046-.66-.056-1.11-.761-1.979-1.941-2.392-.305-.107-.412-.124-.849-.134-.315-.007-.574.007-.7.04M8.56 7.142c-.623.134-1.329.634-1.59 1.127-.209.392-.263.648-.239 1.128.065 1.341 1.011 2.333 2.503 2.625.571.112 1.054.044 1.604-.227a2.352 2.352 0 0 0 1.296-2.055c.005-.575-.192-1.107-.586-1.583-.399-.482-1.067-.893-1.648-1.016a4.072 4.072 0 0 0-1.34.001m-3.901.434c-.979.187-1.705.801-1.943 1.644-.139.493-.029 1.193.273 1.736.369.665 1.247 1.33 1.991 1.506.665.158 1.109-.007 1.362-.506a.968.968 0 0 1 .22-.284c.153-.113.139-.183-.104-.56-.417-.644-.538-.999-.567-1.661-.024-.538.013-.803.18-1.3.103-.306.103-.309.026-.395a.699.699 0 0 0-.217-.146c-.193-.082-.873-.101-1.221-.034m8.568 1.185c-.261.041-.504.162-.587.292-.036.056-.066.277-.084.627-.022.421-.052.615-.137.88-.139.437-.296.745-.495.975-.137.158-.154.199-.126.297.133.464.813 1.27 1.265 1.499.511.259 1.317.322 1.957.154 1.163-.307 1.82-1.069 1.82-2.111 0-.409-.061-.661-.26-1.074-.338-.7-.942-1.201-1.76-1.459-.319-.101-1.184-.144-1.593-.08m5.753 1.717a3.417 3.417 0 0 0-.38.24 3.852 3.852 0 0 1-.614.327c-.498.211-.636.346-.751.731-.105.352-.334.814-.637 1.284-.311.481-.335.551-.253.724.132.28.916.911 1.33 1.071.311.121.72.185 1.181.185.763 0 1.278-.178 1.718-.595.311-.294.524-.627.644-1.005.204-.646.173-1.06-.126-1.68-.154-.32-.237-.434-.527-.724-.259-.258-.415-.377-.623-.476-.362-.171-.724-.203-.962-.082M7.212 12.21a1.581 1.581 0 0 0-.396 1.208c.04.431.133.772.307 1.133.748 1.546 3.091 1.995 4.346.833.611-.565.872-1.404.648-2.075-.184-.551-.596-1.189-.768-1.189-.046 0-.292.071-.546.158-.921.314-1.857.302-2.862-.038-.434-.146-.616-.154-.729-.03m-3.152.787c-.322.079-.566.3-.745.673-.125.263-.234.694-.234.93 0 .27.119.703.285 1.04.134.273.236.407.511.68.546.541 1.086.798 1.83.872.732.072 1.387-.07 1.891-.411.548-.37.567-.508.097-.722-.38-.173-.847-.63-1.225-1.2-.324-.488-.455-.775-.536-1.175-.071-.352-.129-.459-.294-.544-.254-.131-1.256-.222-1.58-.143m9.76 1.084c-.396.015-.811.04-.921.056l-.202.028-.207.368c-.778 1.383-.862 1.707-.593 2.288.467 1.012 1.311 1.601 2.414 1.685 1.018.078 2.051-.44 2.45-1.228.361-.713.331-1.492-.081-2.108-.209-.313-.742-.819-1.002-.951-.2-.101-.707-.187-1.018-.172l-.84.034m-5.116 2.404a.893.893 0 0 0-.507.32c-.128.179-.596.49-.96.636-.356.144-.576.321-.621.5-.039.158.038.499.184.811.285.609.799 1.149 1.34 1.409.509.245.759.298 1.38.295.472-.003.581-.017.863-.109.38-.125.731-.342.964-.596.541-.591.649-1.647.25-2.438-.136-.269-.486-.647-.664-.717-.343-.135-1.815-.208-2.229-.111" fill-rule="evenodd"/></svg>