<svg viewBox="0 0 24 24" xmlns="http://www.w3.org/2000/svg"><path d="M10.119 3.739c-.417.134-.759.614-.759 1.064 0 .122.027.311.059.42.032.108.322.673.643 1.254l.585 1.057-.08.143L8.74 10.98a316.713 316.713 0 0 1-1.787 3.208c-.03.036-.452.052-1.646.06L3.7 14.26l-.206.108c-.426.226-.638.62-.605 1.127.023.353.121.554.384.791.35.315-.102.291 5.816.304l5.308.012.066-.227a1.829 1.829 0 0 0-.093-1.185 1.684 1.684 0 0 0-.8-.802l-.27-.128-1.85-.012c-1.017-.006-1.85-.025-1.85-.042s1.047-1.92 2.326-4.229c1.279-2.308 2.39-4.332 2.469-4.497.272-.569.212-1.078-.172-1.463-.255-.255-.525-.357-.861-.326-.459.041-.743.291-1.14 1.003-.131.234-.248.426-.26.426-.012 0-.137-.206-.278-.458-.273-.489-.488-.741-.743-.871-.204-.105-.584-.128-.822-.052m3.386 4.791c-.716.934-.845 2.288-.327 3.41.166.359 4.265 7.655 4.429 7.884.424.59 1.193.661 1.696.159.334-.335.425-.784.253-1.244-.046-.123-.325-.654-.62-1.181a38.59 38.59 0 0 1-.536-.975c0-.01.419-.023.93-.03.852-.012.946-.02 1.116-.099.767-.355.918-1.38.285-1.936-.294-.259-.272-.256-2.048-.278l-1.617-.02-1.663-2.968c-.915-1.633-1.673-2.969-1.685-2.97-.012-.001-.108.111-.213.248m-8.118 8.401c-.146.047-.171.083-.536.769-.474.893-.544 1.077-.545 1.44-.002.67.538 1.223 1.145 1.172.503-.041.745-.276 1.219-1.179.159-.304.397-.757.53-1.006l.24-.453-.228-.239a1.803 1.803 0 0 0-.527-.386c-.282-.139-.324-.149-.722-.158-.251-.005-.485.011-.576.04" fill-rule="evenodd"/></svg>