<svg viewBox="0 0 24 24" xmlns="http://www.w3.org/2000/svg"><path d="M2.72 12v9.28h18.56V2.72H2.72V12m17.12 0v7.84H4.16V4.16h15.68V12M9.892 6.401a1.102 1.102 0 0 0-.754.566c-.103.187-.118.253-.117.533 0 .25.019.355.086.48.048.088.498.573 1 1.078.905.911.912.919.793.947-.776.181-1.051.261-1.377.4a5.92 5.92 0 0 0-3.602 4.843 11.66 11.66 0 0 0-.041.96c0 .545.005.583.114.812.289.611.934.783 1.436.383a1.45 1.45 0 0 0 .29-.32c.416-.702.648-.992 1.035-1.296L9 15.595v.341c0 .472.095.717.382.979.12.109.285.223.368.252.119.042.679.053 2.69.053 2.31 0 2.571-.007 2.879-.073 1.261-.272 2.2-1.041 2.571-2.107.077-.221.09-.34.089-.8-.001-.505-.01-.561-.124-.861a2.845 2.845 0 0 0-.483-.846l-.136-.167.188-.253c.24-.323.465-.8.583-1.233.126-.468.127-1.346.001-1.808-.349-1.282-1.291-2.241-2.548-2.597-.315-.089-.356-.091-2.86-.1-1.397-.005-2.616.007-2.708.026m4.463 4.635 1.321 1.377-.388.406c-.213.224-.928.968-1.588 1.654l-1.2 1.247-.02-.75c-.03-1.131-.067-1.17-1.105-1.17-.984 0-1.622.142-2.404.534a5.315 5.315 0 0 0-1.731 1.453 6.96 6.96 0 0 1-.213.273c-.05.055.004-.76.077-1.144.222-1.181.998-2.356 1.985-3.008.801-.53 1.458-.752 2.444-.827.575-.044.728-.109.857-.362.083-.163.09-.228.09-.897v-.721l.277.279c.152.154.871.899 1.598 1.656" fill-rule="evenodd"/></svg>