<svg viewBox="0 0 24 24" xmlns="http://www.w3.org/2000/svg"><path d="M2.68 12v9.32l9.31-.01 9.31-.01V2.7l-9.31-.01-9.31-.01V12m17.2 0v7.88H4.16V4.12h15.72V12m-8.691-.16c-.29.051-.667.247-.877.457-.374.372-.552.819-.552 1.383 0 .566.168 1.001.531 1.373.549.562 1.393.67 2.038.26.438-.278.559-.598.308-.809-.186-.157-.36-.141-.606.056-.264.21-.463.263-.745.2-.261-.058-.487-.248-.638-.537-.089-.17-.106-.255-.107-.523 0-.371.084-.599.302-.816.375-.376.827-.377 1.253-.004.182.159.258.2.369.2.207 0 .375-.179.375-.399 0-.144-.025-.189-.2-.365-.373-.373-.953-.563-1.451-.476m-4.769.067c-.211.056-.349.323-.258.501.026.05.182.23.347.398l.301.305-.168.029c-.506.085-1.108.565-1.34 1.067-.212.461-.286 1.033-.163 1.271.13.252.451.216.612-.07.046-.081.145-.208.221-.281l.137-.132.026.165a.542.542 0 0 0 .124.263l.097.097h.942c1.033 0 1.169-.024 1.479-.261.396-.302.487-.866.2-1.245-.079-.104-.086-.134-.04-.171a1.23 1.23 0 0 0-.473-1.849c-.189-.083-.269-.091-1.084-.099-.484-.006-.916 0-.96.012m7.198.071-.098.098v3.25l.117.117.117.117h2.292l.117-.117a.356.356 0 0 0 .021-.511l-.097-.112-.893-.02-.894-.02-.02-1.347-.02-1.347-.097-.103c-.135-.143-.404-.145-.545-.005M8.34 13.92c0 .015-.229.267-.51.561l-.51.534v-.185c0-.417-.113-.5-.591-.436-.437.059-.715.191-1.013.48l-.247.24.022-.241c.063-.696.675-1.299 1.405-1.387.352-.042.424-.117.424-.44v-.226l.51.537c.281.295.51.549.51.563m8.516.816a.445.445 0 0 0-.033.621.46.46 0 0 0 .817-.302c0-.155-.021-.204-.136-.319-.116-.116-.164-.136-.324-.136s-.208.02-.324.136m-.388.849c-.045.045-.032 1.938.014 2.106.053.189.244.41.443.511.187.096.417.103.451.014.036-.093.004-.121-.188-.17-.191-.048-.361-.164-.438-.299-.035-.061-.056-.404-.07-1.127-.019-1.009-.022-1.04-.102-1.052-.045-.006-.094.001-.11.017m-2.308.958c0 .083.017.1.09.09a.113.113 0 0 0 .103-.103c.01-.073-.007-.09-.09-.09-.084 0-.103.019-.103.103m-4.273.179c-.286.062-.427.336-.313.609.06.144.234.269.375.269.13 0 .251.116.251.241 0 .222-.299.309-.401.116-.049-.09-.192-.103-.223-.02-.058.151.189.343.441.343.1 0 .18-.034.272-.117.116-.103.131-.14.131-.323 0-.18-.016-.221-.124-.317a.635.635 0 0 0-.289-.137c-.237-.038-.332-.257-.174-.4.104-.094.206-.082.332.039.12.115.235.106.235-.017 0-.17-.294-.333-.513-.286m1.274.066a.645.645 0 0 0-.333.333c-.098.186-.112.251-.095.431.025.25.115.418.307.572.333.267.757.241 1.061-.063a.786.786 0 0 0 .048-1.087c-.157-.179-.293-.247-.556-.277-.185-.021-.242-.009-.432.091m1.941-.049c-.306.111-.475.304-.547.625-.051.224.017.445.197.644.178.197.341.272.594.272.234 0 .534-.136.534-.241 0-.122-.073-.132-.288-.039-.251.108-.419.084-.612-.086-.197-.173-.252-.379-.163-.612.128-.335.473-.468.787-.305.186.097.276.086.276-.035 0-.177-.504-.322-.778-.223m2.04-.001a.745.745 0 0 0-.454.385.862.862 0 0 0 .042.828c.151.23.484.389.739.354.224-.031.381-.125.362-.218-.01-.049-.045-.063-.132-.053-.48.055-.65.004-.796-.24-.089-.151-.081-.456.018-.615.209-.338.749-.338.958 0 .068.11.081.199.081.568 0 .464.045.61.174.561.056-.022.066-.098.066-.52 0-.441-.01-.515-.093-.672-.174-.329-.622-.505-.965-.378m-.954.007c-.015.016-.028.367-.028.782v.753h.202l-.011-.769c-.009-.658-.02-.772-.073-.782-.034-.006-.075.001-.09.016m-2.344.266c.525.35.201 1.169-.416 1.053-.383-.072-.589-.526-.388-.854.173-.284.541-.375.804-.199" fill-rule="evenodd"/></svg>