<svg viewBox="0 0 24 24" xmlns="http://www.w3.org/2000/svg"><path d="M8.116 2.018c-1.199.331-1.814 1.696-1.27 2.822.111.231.31.445 1.767 1.909.903.907 1.634 1.655 1.625 1.662-.01.008-.252.055-.538.106-2.206.393-4.407 1.618-5.891 3.279a10.656 10.656 0 0 0-2.615 5.536c-.12.768-.157 3.005-.055 3.318.173.529.433.923.723 1.093.231.136.708.297.893.302.241.007.708-.123.898-.249.299-.198.676-.632.885-1.019a6.416 6.416 0 0 1 1.287-1.694c.3-.28.772-.643.836-.643.017 0 .019.248.005.551-.029.611.011.858.2 1.235a2.14 2.14 0 0 0 1.202 1.014c.254.078.367.08 4.641.08 4.613 0 4.747-.005 5.471-.184 1.811-.45 3.35-1.601 4.06-3.036.367-.742.505-1.419.468-2.295a4.53 4.53 0 0 0-1.091-2.815c-.141-.168-.257-.323-.257-.344 0-.021.078-.135.173-.252 1.069-1.322 1.562-3.13 1.329-4.875-.37-2.782-2.479-5.02-5.162-5.479-.45-.077-.641-.08-4.934-.076-3.47.002-4.507.014-4.65.054m6.008 6.104c1.142 1.184 3.942 4.099 4.286 4.462l.156.165-2.612 2.715-2.862 2.976-.251.26v-1.257c-.001-1.041-.012-1.298-.066-1.491a1.02 1.02 0 0 0-.606-.68c-.218-.088-.273-.092-1.189-.088-1.418.007-2.333.152-3.386.54a8.271 8.271 0 0 0-2.273 1.229 9.742 9.742 0 0 0-2.016 2.061l-.225.314v-.354c.002-1.989.621-3.818 1.808-5.349a8.575 8.575 0 0 1 4.602-3.022 9.951 9.951 0 0 1 1.89-.278c.837-.053 1.148-.2 1.355-.643.08-.172.085-.253.097-1.515.007-.733.026-1.327.044-1.32.017.007.579.581 1.248 1.275" fill-rule="evenodd"/></svg>