<svg viewBox="0 0 24 24" xmlns="http://www.w3.org/2000/svg"><path d="M8.3 6.547c-.176.031-.333.07-.349.086-.04.04.107 1.085 1.028 7.267.144.968.279 1.8.3 1.848.082.192.181.215.641.147.231-.034.442-.082.468-.108.038-.037.032-.161-.029-.567-.042-.286-.078-.55-.078-.586-.001-.036.125-.237.279-.446.154-.209.28-.392.28-.408a2.07 2.07 0 0 0-.236-.285c-.468-.511-.66-1.023-.66-1.755.001-.414.015-.52.104-.769.137-.383.485-.898.82-1.214.492-.464 1.035-.676 1.732-.676.427 0 .76.078 1.129.263l.288.146.114-.135c.382-.453.466-.672.323-.839-.09-.104-.731-.389-1.07-.475-.486-.124-1.359-.115-1.889.019A3.65 3.65 0 0 0 9.73 9.074c-.137.142-.25.237-.25.212 0-.024-.09-.631-.199-1.348-.18-1.177-.208-1.311-.29-1.38-.107-.089-.249-.091-.691-.011M5.91 7.803c-.19.111-.19.122-.088 2.259l.097 2.048c.001.031.06.05.159.05.155 0 .157-.003.18-.17.013-.093.077-.908.142-1.81.065-.902.125-1.729.134-1.837.02-.251-.033-.444-.144-.522-.099-.069-.374-.079-.48-.018M2.64 9.484l-1.58.916v.446l1.571.901c1.266.727 1.589.897 1.67.876.096-.024.099-.034.097-.374l-.001-.349-1.062-.6c-.584-.33-1.079-.621-1.101-.647-.039-.048.322-.274 1.626-1.02l.52-.297.012-.337c.01-.283 0-.346-.058-.388-.038-.028-.079-.049-.092-.047-.012.003-.733.417-1.602.92m12.011-.456c-.049.01-.16.1-.246.201l-.157.184.25.246c.686.676.956 1.671.715 2.638-.163.657-.77 1.477-1.354 1.831-.816.495-1.937.505-2.749.026a1.12 1.12 0 0 0-.23-.114c-.02 0-.1.083-.178.185-.109.144-.135.209-.116.29.039.166.091.208.476.391.499.237.929.333 1.485.334 1.513.001 2.697-.769 3.307-2.149.164-.371.225-.726.225-1.315.001-.766-.162-1.347-.551-1.955-.189-.296-.672-.825-.745-.816a4.042 4.042 0 0 0-.132.023m4.843 1.029a3.5 3.5 0 0 0-.994.334c-.987.492-1.644 1.266-1.968 2.317-.1.327-.107.401-.105 1.052.002.763.056 1.064.28 1.573.272.616.838 1.347 1.043 1.347.108 0 .342-.205.569-.498l.166-.216-.249-.313a2.986 2.986 0 0 1-.559-1.093c-.068-.282-.069-.956-.001-1.24.124-.516.605-1.248 1.06-1.61.438-.349 1.036-.548 1.646-.549.456-.001.742.071 1.209.304.433.216.386.231.748-.243.324-.425.282-.514-.399-.844-.568-.275-.863-.343-1.56-.361-.401-.01-.695.003-.886.04M5.752 12.479c-.128.131-.232.274-.232.319 0 .045.096.194.212.332.298.35.381.354.682.03.141-.153.226-.28.226-.338 0-.094-.209-.38-.373-.511-.157-.125-.265-.089-.515.168m16.308 3.643c-.485.411-1.001.617-1.661.664-.51.037-.914-.054-1.459-.327l-.44-.221-.15.171c-.164.187-.198.377-.088.487.119.12.561.34.923.461a3.825 3.825 0 0 0 3.441-.561c.304-.23.333-.261.333-.375.001-.096-.457-.542-.552-.538-.037.001-.193.109-.347.239" fill-rule="evenodd"/></svg>