<svg viewBox="0 0 24 24" xmlns="http://www.w3.org/2000/svg"><path class="st0" style="fill:none" d="M0 0h24v24H0z"/><path d="M7.218 18.575h13.149V6.896a2.389 2.389 0 0 0 1.195-2.068 2.39 2.39 0 0 0-2.39-2.391 2.383 2.383 0 0 0-1.79.809 1.79 1.79 0 0 0-2.914-.113 2.379 2.379 0 0 0-1.984.293 2.382 2.382 0 0 0-1.68-.69 2.38 2.38 0 0 0-1.631.646 1.784 1.784 0 0 0-1.058-.347 1.793 1.793 0 0 0-1.793 1.793c0 .46.174.878.46 1.195h-3.15c-.66 0-1.195.535-1.195 1.195v8.965c0 .66.535 1.196 1.195 1.196h3.586v1.196zm3.885-2.093a.299.299 0 1 1-.598 0v-7.77a.299.299 0 1 1 .598 0v7.77zm2.988 0a.299.299 0 1 1-.597 0v-7.77a.299.299 0 1 1 .597 0v7.77zm2.989 0a.299.299 0 1 1-.598 0v-7.77a.299.299 0 1 1 .598 0v7.77zM8.115 3.632a1.19 1.19 0 0 1 1.084.7 1.787 1.787 0 0 1 .391-.522 1.784 1.784 0 0 1 1.214-.477 1.784 1.784 0 0 1 1.223.485 1.797 1.797 0 0 1 .369.485 1.81 1.81 0 0 1 .457-.403 1.783 1.783 0 0 1 .94-.268 1.799 1.799 0 0 1 .947.273 1.19 1.19 0 0 1 .297-.517 1.19 1.19 0 0 1 .847-.353 1.192 1.192 0 0 1 1.12.789c.024.066.043.134.055.204.15.051.293.12.422.207a1.78 1.78 0 0 1 .163-.343 1.79 1.79 0 0 1 1.527-.857 1.793 1.793 0 1 1-.999 3.281 1.807 1.807 0 0 1-.503-.512 1.183 1.183 0 0 1-.247.65 1.188 1.188 0 0 1-.94.465 1.19 1.19 0 0 1-1.084-.698 1.793 1.793 0 0 1-.392.52 1.786 1.786 0 0 1-2.436-.007 1.8 1.8 0 0 1-.369-.485 1.805 1.805 0 0 1-1.397.67 1.79 1.79 0 0 1-1.741-1.371 1.2 1.2 0 0 1-.506.388 1.184 1.184 0 0 1-.442.087 1.195 1.195 0 0 1 0-2.39zM4.828 14.988V8.414h2.39v6.574h-2.39zm2.39 4.184v1.196c0 .66.535 1.195 1.196 1.195H19.17c.661 0 1.196-.535 1.196-1.195v-1.196H7.218z"/></svg>