<svg viewBox="0 0 24 24" xmlns="http://www.w3.org/2000/svg"><path class="st0" style="fill:none" d="M0 0h24v24H0z"/><path d="M20.333 7.417H14.5V5.75h5.833v1.667Zm1.439 8.333c-.369 1.081-1.691 2.5-4.251 2.5-2.562 0-4.637-1.441-4.637-4.729 0-3.258 1.938-4.933 4.555-4.933 2.568 0 4.137 1.485 4.479 3.688.065.421.091.99.079 1.783h-6.689c.109 2.676 2.903 2.76 3.824 1.691h2.64Zm-6.405-3.333h4.137c-.087-1.29-.947-1.85-2.064-1.85-1.222 0-1.898.64-2.073 1.85ZM7.388 18.24H2V5.768h5.794c4.563.067 4.65 4.536 2.267 5.754 2.884 1.05 2.981 6.718-2.673 6.718ZM4.5 10.75h2.987c2.09 0 2.421-2.5-.26-2.5H4.5v2.5Zm2.826 2.5H4.5v2.513h2.784c2.546 0 2.39-2.513.042-2.513Z"/></svg>