<svg viewBox="0 0 24 24" xmlns="http://www.w3.org/2000/svg"><path d="M3.787 5.849c-.015 1.04-.027 3.784-.027 6.099v4.207l.17.021c.954.119 1.233.161 1.63.249 1.251.277 2.536.833 3.66 1.581a9.447 9.447 0 0 1 1.744 1.44c.299.304.556.541.57.527.014-.015.026-2.615.026-5.778V8.443l-.308-.411c-.354-.473-1.313-1.45-1.812-1.848-1.494-1.19-3.478-2.001-5.383-2.201l-.244-.025-.026 1.891M19.52 4.043a10.237 10.237 0 0 0-4.126 1.541c-.945.605-1.94 1.537-2.66 2.492l-.254.336v11.619l.59-.587c.97-.965 1.802-1.574 2.89-2.119 1.195-.597 2.364-.942 3.74-1.103.286-.034.533-.061.55-.062.017 0 .03-2.745.03-6.1v-6.1l-.13.004a8.197 8.197 0 0 0-.63.079M2.5 6.763l-.47.137-.23.066v6.257c0 3.441.009 6.257.02 6.257.011 0 .263-.054.559-.12.822-.183 1.24-.236 2.233-.287 1.455-.075 2.519.02 3.853.345.464.114 1.213.342 1.595.487.074.028.075.024.02-.045-.122-.152-1.072-.914-1.473-1.181a9.748 9.748 0 0 0-2.569-1.191c-.798-.227-1.235-.305-2.195-.389-.697-.061-.882-.11-.947-.248-.018-.039-.043-2.325-.055-5.079-.014-3.26-.035-5.021-.061-5.044-.024-.022-.135-.008-.28.035m18.651 4.994-.011 5.037-.096.102c-.13.139-.267.173-.804.202a9.725 9.725 0 0 0-5.992 2.493c-.182.165-.325.306-.317.314.008.008.23-.059.492-.148 1.163-.395 2.214-.598 3.517-.68 1.314-.082 2.478.014 3.85.321.203.045.378.082.39.082.011 0 .016-2.812.01-6.25l-.01-6.25-.42-.128a3.9 3.9 0 0 0-.509-.13l-.089-.002-.011 5.037" fill-rule="evenodd"/></svg>