<svg viewBox="0 0 24 24" xmlns="http://www.w3.org/2000/svg"><path d="M11.707 2.287c-.139.051-8.636 5.992-8.818 6.166-.252.24-.249.201-.249 3.537 0 2.109.014 3.069.045 3.194a.853.853 0 0 0 .21.354c.162.171 8.45 5.992 8.749 6.144.217.111.53.103.741-.017.403-.231 8.572-5.97 8.72-6.127a.847.847 0 0 0 .21-.354c.063-.251.063-6.116 0-6.367a.884.884 0 0 0-.19-.336c-.172-.187-8.656-6.129-8.846-6.195a1.003 1.003 0 0 0-.572.001M11.16 6.65v1.93L9.455 9.771l-1.704 1.19-1.378-.964c-.758-.531-1.369-.974-1.358-.985.031-.031 6.12-4.292 6.133-4.292.007 0 .012.868.012 1.93m4.78.223c1.65 1.153 3.015 2.11 3.034 2.127.018.017-.588.466-1.348.997l-1.381.967-1.702-1.192-1.703-1.191V6.648c0-1.536.01-1.926.05-1.902.028.017 1.4.974 3.05 2.127m-2.652 4.09c.667.466 1.271.892 1.344.946l.131.097-1.368.957c-.752.526-1.38.957-1.395.957-.015 0-.642-.43-1.393-.955-1.079-.755-1.355-.965-1.312-1.001.27-.224 2.695-1.881 2.733-1.867.026.011.593.4 1.26.866m-7.933.397c.486.341.884.63.884.643.001.02-1.4 1.012-1.766 1.251l-.113.074v-1.326c0-1.123.009-1.321.056-1.294.031.018.453.311.939.652m14.276 1.303-.011.663-.92-.644c-.506-.354-.92-.66-.92-.68 0-.02.414-.326.92-.68l.92-.644.011.661c.006.364.006.959 0 1.324M9.472 14.24l1.687 1.18v1.932c.001 1.536-.009 1.927-.049 1.903-.079-.048-6.046-4.222-6.084-4.256-.032-.029 2.689-1.966 2.737-1.948.013.005.782.54 1.709 1.189m8.157-.236c.758.531 1.363.979 1.345.995-.038.034-6.005 4.208-6.084 4.256-.04.024-.05-.367-.049-1.903V15.42l1.69-1.186c.929-.653 1.696-1.188 1.704-1.19.009-.002.636.43 1.394.96" fill-rule="evenodd"/></svg>