<!-- Generated by IcoMoon.io -->
<svg version="1.1" xmlns="http://www.w3.org/2000/svg" width="1024" height="1024" viewBox="0 0 1024 1024">
<title>coffee</title>
<g id="icomoon-ignore">
</g>
<path fill="#000" d="M450.432 116.523c-9.728 6.528-12.885 12.971-14.165 28.843-2.219 27.307-6.443 33.792-38.997 60.16-33.707 27.264-50.091 56.021-53.547 93.824-2.005 22.144 7.467 35.157 26.496 36.523 7.851 0.512 10.539-0.043 15.317-3.328 10.411-7.168 12.459-11.52 14.037-30.037 2.261-26.88 5.461-32.128 34.005-55.467 31.275-25.557 46.763-46.891 54.443-74.837 4.608-16.768 5.035-36.181 0.981-44.757-6.4-13.44-26.411-19.115-38.571-10.923zM561.493 154.027c-9.429 6.4-11.861 11.179-13.653 26.88-2.091 18.219-5.888 24.021-25.685 39.168-27.605 21.205-38.912 36.395-45.141 60.672-3.541 13.824-3.627 33.109-0.171 39.723 4.876 8.924 14.196 14.876 24.906 14.876 2.428 0 4.785-0.306 7.033-0.881l-0.196 0.043c8.747-2.347 18.347-11.861 19.413-19.157 4.437-30.976 4.651-31.403 23.381-46.549 22.229-17.963 36.352-33.152 42.112-45.227 6.699-14.080 11.435-36.864 10.069-48.469-1.835-15.189-12.544-24.917-27.563-24.917-0.478-0.035-1.036-0.055-1.598-0.055-4.809 0-9.279 1.455-12.992 3.948l0.084-0.053zM244.053 375.339c-23.443 7.587-41.050 26.923-46.046 50.886l-0.077 0.442c-1.877 9.6 24.448 358.656 28.288 375.211 12.629 53.571 54.285 94.885 107.080 106.827l0.952 0.181c8.917 1.92 30.592 2.432 101.803 2.432 84.181 0 91.435-0.213 104.491-3.328 51.243-12.288 91.819-52.523 103.552-102.613 1.408-6.016 3.029-13.781 3.584-17.323l1.024-6.4h26.411c30.165 0 45.952-2.56 65.408-10.667 32.128-13.312 60.757-41.045 74.496-72.107 10.496-23.765 11.477-31.061 12.288-93.227 0.512-38.571 0.128-60.373-1.152-66.56-4.192-21.439-17.91-39.005-36.472-48.375l-0.392-0.18-10.197-4.992-108.672-1.067 0.896-3.755c0.512-2.048 1.451-14.123 2.091-26.795 0.981-19.243 0.683-24.832-1.749-33.28-5.615-20.067-20.147-35.904-38.941-43.199l-0.441-0.15c-9.387-3.499-11.264-3.541-196.736-3.413-102.955 0.085-189.141 0.768-191.488 1.451zM769.664 544.299c2.389 4.523 2.304 100.48-0.085 113.749-6.357 34.603-36.309 62.763-71.552 67.243-13.227 1.707-43.221 2.347-44.587 0.981-0.555-0.555 12.928-182.315 13.739-184.832 0.085-0.256 22.741-0.427 50.432-0.427 47.957 0 50.347 0.171 52.053 3.285z"></path>
</svg>
