<svg viewBox="0 0 24 24" xmlns="http://www.w3.org/2000/svg"><path class="st0" style="fill:none" d="M0 0h24v24H0z"/><path d="M19.341 5.344A17.428 17.428 0 0 0 14.978 4c-.192.331-.405.779-.555 1.131a16.654 16.654 0 0 0-4.833 0c-.149-.352-.373-.8-.554-1.131a17.172 17.172 0 0 0-4.364 1.344c-2.763 4.075-3.509 8.053-3.136 11.979A17.778 17.778 0 0 0 6.881 20c.427-.576.811-1.195 1.141-1.845a11.257 11.257 0 0 1-1.802-.864c.149-.107.298-.224.437-.342 3.477 1.59 7.244 1.59 10.678 0 .15.118.288.235.438.342-.576.341-1.174.629-1.803.864.331.65.715 1.269 1.141 1.845a17.676 17.676 0 0 0 5.345-2.677c.459-4.544-.726-8.491-3.115-11.979ZM8.502 14.901c-1.045 0-1.898-.949-1.898-2.112 0-1.162.832-2.112 1.898-2.112 1.056 0 1.92.95 1.899 2.112 0 1.163-.843 2.112-1.899 2.112Zm7.009 0c-1.045 0-1.899-.949-1.899-2.112 0-1.162.833-2.112 1.899-2.112 1.056 0 1.92.95 1.899 2.112 0 1.163-.832 2.112-1.899 2.112Z"/></svg>