<svg viewBox="0 0 24 24" xmlns="http://www.w3.org/2000/svg"><path class="st0" style="fill:none" d="M0 0h24v24H0z"/><path fill-rule="evenodd" clip-rule="evenodd" d="M12 2C6.479 2 2 6.479 2 12s4.479 10 10 10c5.51 0 10-4.479 10-10S17.51 2 12 2Zm6.605 4.61a8.504 8.504 0 0 1 1.931 5.314c-.282-.054-3.102-.629-5.944-.271-.065-.141-.119-.293-.184-.445a25.996 25.996 0 0 0-.564-1.236c3.145-1.28 4.577-3.124 4.761-3.362ZM12 3.475c2.169 0 4.154.814 5.662 2.148-.152.216-1.443 1.941-4.48 3.08-1.399-2.571-2.95-4.675-3.189-5A8.684 8.684 0 0 1 12 3.475Zm-3.633.803a53.906 53.906 0 0 1 3.167 4.935c-3.992 1.063-7.517 1.041-7.896 1.041a8.577 8.577 0 0 1 4.729-5.976Zm-4.914 7.733v-.26c.369.01 4.512.065 8.775-1.215.249.477.477.965.694 1.453-.109.033-.228.065-.336.098-4.404 1.421-6.747 5.303-6.942 5.629a8.521 8.521 0 0 1-2.191-5.705ZM12 20.547a8.484 8.484 0 0 1-5.239-1.801c.152-.314 1.888-3.655 6.703-5.336.022-.011.033-.011.054-.022a35.419 35.419 0 0 1 1.823 6.475 8.4 8.4 0 0 1-3.341.684Zm4.761-1.465c-.086-.52-.542-3.015-1.659-6.084 2.679-.423 5.022.271 5.314.369a8.462 8.462 0 0 1-3.655 5.715Z"/></svg>