<svg viewBox="0 0 24 24" xmlns="http://www.w3.org/2000/svg"><path class="st0" style="fill:none" d="M0 0h24v24H0z"/><path d="M12.299 2.962V7.21a11.331 11.331 0 0 0 3.16-.53 11.407 11.407 0 0 0-3.16-3.72zm3.993 4.057a11.899 11.899 0 0 1 1.08 4.682h4.184a9.525 9.525 0 0 0-2.522-6.179 11.918 11.918 0 0 1-2.742 1.497zm-.264-.539a11.343 11.343 0 0 0 2.582-1.388 9.528 9.528 0 0 0-5.988-2.633 12.008 12.008 0 0 1 3.406 4.021zm1.344 5.82a11.886 11.886 0 0 1-1.326 5.186 11.897 11.897 0 0 1 2.643 1.347 9.533 9.533 0 0 0 2.867-6.534h-4.184zm-.598 0H12.3v4.49c1.1.027 2.165.2 3.172.506a11.295 11.295 0 0 0 1.303-4.997zm-5.073 0H7.225a11.298 11.298 0 0 0 1.303 4.996 11.938 11.938 0 0 1 3.173-.506V12.3zm.598 8.739a11.418 11.418 0 0 0 2.872-3.207 11.338 11.338 0 0 0-2.872-.444v3.651zm0-9.338h4.475a11.305 11.305 0 0 0-1.047-4.48 11.927 11.927 0 0 1-3.428.588V11.7zM11.7 7.81a11.925 11.925 0 0 1-3.428-.589 11.305 11.305 0 0 0-1.048 4.481H11.7V7.81zM7.971 6.48a12.005 12.005 0 0 1 3.407-4.021A9.526 9.526 0 0 0 5.39 5.092 11.33 11.33 0 0 0 7.97 6.48zm3.73 14.559v-3.651a11.349 11.349 0 0 0-2.872.444 11.41 11.41 0 0 0 2.872 3.207zm4.052-3.021a12.012 12.012 0 0 1-3.13 3.524 9.517 9.517 0 0 0 5.612-2.293 11.32 11.32 0 0 0-2.482-1.231zm-7.507 0a11.337 11.337 0 0 0-2.481 1.23 9.518 9.518 0 0 0 5.612 2.294 12.013 12.013 0 0 1-3.13-3.524zm-1.618-5.719H2.443a9.532 9.532 0 0 0 2.867 6.534 11.89 11.89 0 0 1 2.644-1.348A11.891 11.891 0 0 1 6.628 12.3zM11.7 2.962A11.405 11.405 0 0 0 8.54 6.68a11.324 11.324 0 0 0 3.16.53V2.963zm-5.073 8.74a11.904 11.904 0 0 1 1.08-4.683 11.93 11.93 0 0 1-2.742-1.497 9.525 9.525 0 0 0-2.523 6.18h4.185z"/></svg>