<svg viewBox="0 0 24 24" xmlns="http://www.w3.org/2000/svg"><path class="st0" style="fill:none" d="M0 0h24v24H0z"/><path d="M12.001 2.134c-5.003 0-9.132 3.724-9.776 8.549l-.003.015c-.018.13-.032.26-.045.391-.005.061-.008.122-.014.183-.007.087-.014.173-.017.26-.007.154-.012.311-.012.468 0 5.448 4.418 9.866 9.867 9.866 5.448 0 9.865-4.418 9.865-9.866 0-5.449-4.417-9.866-9.865-9.866Zm.419 18.037c-.222.243-.586.436-.825.207-.2-.199-.03-.445 0-.726.039-.329-.111-.723.206-.825.258-.08.453.099.619.312.255.314.27.731 0 1.032Zm3.109-2.661c-.363.187-.618.152-1.025.207-.756.096-1.354.469-1.953 0-.267-.214-.3-.448-.508-.722-.334-.42-.418-1.196-.928-1.024-.326.11-.316.436-.51.72-.249.356-.187.861-.618.923-.3.043-.462-.142-.715-.308-.285-.19-.34-.416-.618-.615-.287-.212-.521-.213-.817-.411-.214-.144-.26-.402-.517-.412-.231-.006-.397.106-.513.307-.216.375-.29 1.479-.92 1.439-.469-.032-1.467-1.081-1.849-1.334-.125-.085-.24-.171-.357-.235a9.196 9.196 0 0 1-.924-3.818c.189-.159.381-.238.561-.462.285-.347.148-.772.515-1.028.273-.186.494-.156.824-.202.471-.069.768-.13 1.23 0 .449.125.62.384 1.024.614.436.25.633.544 1.128.616.361.052.607-.277.922-.103.254.141.434.328.413.617-.03.375-.777.137-.819.513-.057.48.774-.06 1.231.101.3.109.69.09.716.411.025.356-.495.259-.819.412-.358.167-.546.306-.926.41-.347.092-.713-.194-.92.101-.164.228-.107.46 0 .72.242.596 1.032.417 1.639.202.427-.15.507-.532.925-.718.443-.197.787-.411 1.228-.204.362.171.261.632.618.821.386.206.75-.224 1.13 0 .295.176.273.469.51.717.275.291.434.526.822.617.397.092.639-.33 1.025-.207.298.097.542.209.614.516.112.437-.419.612-.819.819Zm.739-4.942c-.357.358-.666.474-1.164.583-.441.097-1.061.443-1.162 0-.078-.354.317-.48.584-.728.295-.275.571-.302.871-.582.268-.248.232-.627.583-.728.342-.099.673-.006.871.292.283.422-.225.804-.583 1.163Zm4.361-1.395c-.151.157-.141.322-.296.475-.172.167-.411.096-.536.3-.111.177-.041.325-.06.534-.014.12-.593.388-.714.119-.065-.149.087-.28 0-.417-.08-.124-.171-.061-.277.056-.111.119-.238.295-.377.361-.181.084-.06-.694-.121-.953-.045-.203.003-.332.061-.534.077-.281.289-.372.357-.655.059-.249.01-.399 0-.655-.013-.279-.006-.439-.059-.714-.059-.288-.077-.47-.238-.714-.128-.192-.213-.308-.416-.417a.966.966 0 0 0-.14-.059c-.105-.034-.204-.039-.34-.058-.272-.041-.468.133-.712 0-.143-.079-.187-.179-.297-.299-.123-.134-.157-.243-.298-.357a.857.857 0 0 0-.298-.179c-.242-.081-.412-.026-.654.061-.237.081-.327.217-.537.355-.161.094-.276.115-.415.239-.085.075-.491.363-.656.356-.168-.007-.262-.106-.413-.118a.32.32 0 0 0-.062 0h-.002c-.146.011-.215.083-.353.118-.341.086-.559-.035-.896.061-.22.061-.307.236-.533.238-.26.001-.347-.23-.596-.299-.136-.037-.217-.04-.357-.059-.23-.033-.363-.036-.594-.059h-.001c-.005.002-.182.018-.213 0-.13-.087-.221-.161-.382-.238a2.099 2.099 0 0 0-.477-.18l.007-.118s0-.26-.036-.372c-.036-.111-.076-.111 0-.334.075-.223.209-.365.209-.365.09-.07.159-.094.236-.179a.777.777 0 0 0 .239-.536c.021-.299-.371-.421-.299-.714.065-.255.279-.302.476-.475.24-.208.453-.235.654-.476.155-.183.281-.297.3-.535.016-.203-.072-.33-.176-.476a9.303 9.303 0 0 1 1.664-.151c4.599 0 8.413 3.358 9.128 7.756-.064.109-.001.246-.084.368-.11.167-.278.153-.416.298Z"/></svg>