<svg viewBox="0 0 24 24" xmlns="http://www.w3.org/2000/svg"><path d="M3.725 1.882c-.194.043-.332.157-.435.359-.081.159-.09.233-.089.757v.582L7.223 7.2a1374.88 1374.88 0 0 0 4.178 3.752l.156.132 1.618-1.452c.89-.799 1.614-1.469 1.609-1.489-.008-.032-8.693-5.124-10.164-5.959-.544-.309-.672-.352-.895-.302M3.2 12c0 3.894.015 6.561.036 6.553.048-.017 7.283-6.527 7.283-6.553 0-.026-7.235-6.536-7.283-6.553C3.215 5.439 3.2 8.106 3.2 12m11.13-1.594c-.952.857-1.73 1.575-1.73 1.594 0 .045 3.441 3.143 3.479 3.132.115-.032 4.409-2.569 4.51-2.664a.623.623 0 0 0 .018-.908c-.092-.094-.938-.61-2.267-1.382a645.031 645.031 0 0 1-2.2-1.281c-.073-.046-.227.082-1.81 1.509m-6.951 6.257L3.22 20.406l-.011.567c-.009.445.002.603.053.736.124.328.491.513.801.404.228-.081 10.783-6.244 10.747-6.275l-1.639-1.472a148.912 148.912 0 0 0-1.621-1.446c-.006 0-1.883 1.684-4.171 3.743" fill-rule="evenodd"/></svg>