<svg viewBox="0 0 24 24" xmlns="http://www.w3.org/2000/svg"><path class="st0" style="fill:none" d="M0 0h24v24H0z"/><path d="M13.383 15.647a4.999 4.999 0 0 1-3.558-1.474 1.112 1.112 0 0 1 1.573-1.573 2.788 2.788 0 0 0 1.985.822 2.787 2.787 0 0 0 1.984-.822l2.96-2.96a2.81 2.81 0 0 0 0-3.969 2.81 2.81 0 0 0-3.969 0l-1.267 1.267a1.112 1.112 0 0 1-1.573-1.573L12.785 4.1a5.037 5.037 0 0 1 7.115 0 5.037 5.037 0 0 1 0 7.115l-2.96 2.96a5 5 0 0 1-3.557 1.473z"/><path d="M7.657 21.373A4.999 4.999 0 0 1 4.1 19.899a5.037 5.037 0 0 1 0-7.115l2.96-2.96a5.037 5.037 0 0 1 7.115 0 1.112 1.112 0 0 1-1.573 1.573 2.81 2.81 0 0 0-3.97 0l-2.96 2.96a2.81 2.81 0 0 0 0 3.969 2.788 2.788 0 0 0 1.985.822 2.788 2.788 0 0 0 1.985-.822l1.267-1.267a1.112 1.112 0 0 1 1.573 1.573L11.215 19.9a4.999 4.999 0 0 1-3.558 1.474z"/></svg>