<svg viewBox="0 0 24 24" xmlns="http://www.w3.org/2000/svg"><path d="M20.946 8.305a6.534 6.534 0 0 0-.419-2.216 4.607 4.607 0 0 0-2.633-2.633 6.59 6.59 0 0 0-2.186-.42c-.962-.043-1.267-.055-3.709-.055s-2.755 0-3.71.055a6.58 6.58 0 0 0-2.185.42 4.607 4.607 0 0 0-2.633 2.633 6.554 6.554 0 0 0-.419 2.185c-.043.963-.056 1.268-.056 3.71s0 2.754.056 3.71c.015.748.156 1.486.419 2.187a4.61 4.61 0 0 0 2.634 2.632 6.594 6.594 0 0 0 2.185.45c.963.043 1.268.056 3.71.056s2.755 0 3.71-.056a6.59 6.59 0 0 0 2.186-.419 4.613 4.613 0 0 0 2.633-2.633c.263-.7.404-1.438.419-2.187.043-.962.056-1.267.056-3.71-.002-2.442-.002-2.752-.058-3.709Zm-8.953 8.297a4.622 4.622 0 0 1-4.623-4.623 4.622 4.622 0 0 1 4.623-4.623c3.559 0 5.783 3.852 4.004 6.934a4.622 4.622 0 0 1-4.004 2.312ZM16.8 8.263a1.077 1.077 0 1 1-.001-2.156 1.077 1.077 0 0 1 .001 2.156Z"/><circle cx="11.993" cy="11.979" r="3.003"/></svg>