<svg viewBox="0 0 24 24" xmlns="http://www.w3.org/2000/svg"><path class="st0" style="fill:none" d="M0 0h24v24H0z"/><path d="M15.921 18.92a.922.922 0 0 0-.922.922v.923c0 .51.413.923.922.923h3.23a2.308 2.308 0 0 0 2.306-2.307V4.619a2.308 2.308 0 0 0-2.307-2.306h-3.229a.922.922 0 0 0-.922.923v.922c0 .51.413.923.922.923h2.768v13.838h-2.768v.001Z"/><path d="M10.847 15.691a.923.923 0 0 0 1.575.652l3.69-3.69a.923.923 0 0 0 0-1.305l-3.69-3.69a.923.923 0 0 0-1.575.652v2.306h-7.38a.923.923 0 0 0-.923.923v.923c0 .51.413.922.922.922h7.381v2.307Z"/></svg>