<svg viewBox="0 0 24 24" xmlns="http://www.w3.org/2000/svg"><path class="st0" style="fill:none" d="M0 0h24v24H0z"/><path d="M8.088 5.098a.92.92 0 0 0 .92-.92v-.921a.92.92 0 0 0-.92-.92H4.866a2.3 2.3 0 0 0-2.3 2.3v14.726a2.3 2.3 0 0 0 2.3 2.3h3.223a.92.92 0 0 0 .92-.92v-.92a.92.92 0 0 0-.92-.92H5.327V5.097h2.76l.001.001Z"/><path d="M15.91 8.319a.92.92 0 0 1 1.571-.651l3.682 3.681a.92.92 0 0 1 0 1.302l-3.682 3.681a.92.92 0 0 1-1.57-.65V13.38H8.547a.92.92 0 0 1-.92-.92v-.92a.92.92 0 0 1 .92-.92h7.362V8.318l.001.001Z"/></svg>