<svg viewBox="0 0 24 24" xmlns="http://www.w3.org/2000/svg"><path fill-rule="evenodd" clip-rule="evenodd" d="M5.968 4h12.064c.439 0 .817 0 1.13.021.33.023.66.072.986.207a3.005 3.005 0 0 1 1.624 1.624c.135.326.184.656.207.986.021.313.021.691.021 1.13v8.064c0 .439 0 .817-.021 1.13-.023.33-.072.66-.207.986a3.005 3.005 0 0 1-1.624 1.624 3.084 3.084 0 0 1-.986.207c-.313.021-.691.021-1.13.021H5.968c-.439 0-.817 0-1.13-.021a3.084 3.084 0 0 1-.986-.207 3.005 3.005 0 0 1-1.624-1.624 3.084 3.084 0 0 1-.207-.986C2 16.849 2 16.471 2 16.032V7.968c0-.439 0-.817.021-1.13.023-.33.072-.66.207-.986a3.005 3.005 0 0 1 1.624-1.624c.326-.135.656-.184.986-.207C5.151 4 5.529 4 5.968 4ZM4.317 6.278a1 1 0 0 1 1.412-.094l5.613 4.911a1 1 0 0 0 1.317 0l5.613-4.911a1 1 0 1 1 1.317 1.505L13.976 12.6a3 3 0 0 1-3.951 0L4.412 7.689a1 1 0 0 1-.095-1.411Z"/></svg>