<svg viewBox="0 0 24 24" xmlns="http://www.w3.org/2000/svg"><path class="st0" style="fill:none" d="M0 0h24v24H0z"/><path d="M20.888 2.86a1.17 1.17 0 0 0-1.044-.173l-2.716.858c.03.051.054.113.069.19.084.432-.214.643-.348 1.056.134.35.047.613.23.9.171.262.463.147.584.453.186.464-.115.941-.466 1.202a.527.527 0 0 1-.324.112c-.188 0-.375-.088-.606-.112-.648-.062-.991-.284-1.626-.452-.64-.165-1.026-.468-1.613-.468-.078 0-.16.006-.247.017-.47.069-.887-.044-1.163.45-.264.48-.278 1.042 0 1.509.239.394.553.344.93.448.164.045.308.06.444.06.278 0 .526-.062.85-.062.033 0 .067 0 .101.002.065.003.126.004.186.004.22 0 .412-.014.6-.014.266 0 .524.028.84.161.387.161.538.469.93.603.146.05.277.069.402.069.405 0 .74-.2 1.228-.222.297-.01.542-.147.783-.147a.56.56 0 0 1 .379.147c.335.294.158.857.463 1.205.257.3.472.384.813.452.155.03.294.057.425.057.13 0 .252-.027.375-.107V3.804a1.17 1.17 0 0 0-.479-.945z"/><path d="M16.324 6.764c.151.015.28.047.384.074.048.012.112.028.147.033.132-.101.282-.287.278-.441a1.076 1.076 0 0 1-.548-.424c-.175-.275-.205-.536-.227-.726-.013-.109-.023-.195-.056-.28a.584.584 0 0 1-.01-.39c.066-.201.155-.36.226-.488.085-.15.108-.2.108-.241a3.183 3.183 0 0 0-.121-.024 4.016 4.016 0 0 1-.216-.047l-1.069.338V6.46l.232.08c.299.107.535.191.872.224zM2.633 5.853v1.772c.193.02.368.03.544.03.19 0 .373-.01.604-.022l.236-.013c.125-.007.248-.05.391-.098.194-.067.413-.142.677-.142a1.367 1.367 0 0 1 .615.148c.364.177.549.456.697.68.08.12.15.225.237.298.208.174.385.237.63.323.241.085.515.182.832.394a7.946 7.946 0 0 1 .684.509v-6.96L3.4 4.754a1.17 1.17 0 0 0-.766 1.099zM14.128 9.44a4.73 4.73 0 0 1-.21-.004 2.344 2.344 0 0 0-.077-.002c-.135 0-.26.014-.392.03-.143.016-.29.032-.457.032a2.22 2.22 0 0 1-.6-.081 2.554 2.554 0 0 0-.21-.045c-.298-.056-.747-.14-1.068-.668-.377-.635-.381-1.416-.008-2.093.371-.664.95-.699 1.333-.722.09-.006.177-.011.262-.023a2.383 2.383 0 0 1 .326-.023c.474 0 .833.144 1.179.284.141.056.28.108.428.155V4.326L9.736 2.693a1.17 1.17 0 0 0-.37-.06v7.654c.112.117.228.244.355.389.152.173.253.346.335.485.098.166.153.255.237.31.012.007.017.01.023.01.045 0 .133-.027.218-.052.155-.046.348-.104.574-.104.167 0 .33.032.489.097l.101.042c.46.188 1.03.422 1.278 1.232a2.18 2.18 0 0 1 0 1.398c-.114.36-.347.544-.486.654-.032.026-.077.061-.086.073l-.005.015a.623.623 0 0 0 .02.169c.037.185.091.466-.04.793-.224.544-.663.82-1.305.82-.067 0-.135-.003-.202-.007-.413-.025-.676-.23-.868-.381a1.985 1.985 0 0 0-.208-.15 2.766 2.766 0 0 1-.43-.32v3.907l5.209 1.645c.02.006.04.01.06.014V9.428l-.162.004c-.11.004-.223.008-.345.008zm-5.614 5.807-.05-.003-.002.053c-.006.202-.016.508-.225.78-.24.32-.57.488-.956.488-.21 0-.408-.05-.582-.092l-.107-.026c-.359-.082-.58-.294-.742-.449-.077-.074-.15-.143-.193-.154a1.412 1.412 0 0 0-.252-.048c-.013 0-.036 0-.088.021-.132.054-.207.236-.348.638-.045.127-.091.259-.144.39-.047.12-.057.275-.068.44-.022.324-.052.77-.42 1.12-.262.25-.56.372-.908.372-.18 0-.347-.032-.51-.063l-.03-.007a2.907 2.907 0 0 1-.256-.062v1.551a1.17 1.17 0 0 0 1.523 1.117l4.624-1.46v-4.577a.322.322 0 0 0-.1-.02 4.031 4.031 0 0 1-.166-.009zm10.151-.54c-.272-.083-.447-.136-.601-.055.048.07.146.173.215.247.264.28.624.661.45 1.116-.12.323-.407.438-.616.521-.199.08-.244.11-.255.168-.01.06.006.081.016.093.057.068.234.136.503.136.305 0 .618-.086.796-.22.308-.236.41-.56.328-1.047-.082-.494-.355-.807-.836-.958z"/><path d="m20.483 11.689-.03-.007c-.44-.087-.784-.226-1.14-.64-.258-.295-.313-.64-.354-.89a1.266 1.266 0 0 0-.058-.262c-.042.003-.124.026-.197.046a2.32 2.32 0 0 1-.55.1c-.18.008-.344.053-.519.1a2.739 2.739 0 0 1-.734.122 1.802 1.802 0 0 1-.592-.1c-.308-.105-.51-.276-.672-.412a1.146 1.146 0 0 0-.295-.205 1.419 1.419 0 0 0-.122-.044v11.83c.025-.008.052-.011.077-.02l5.27-1.756a1.17 1.17 0 0 0 .8-1.111v-6.748a1.289 1.289 0 0 1-.375.06c-.18 0-.347-.033-.51-.063zm-.957 5.491c-.284.213-.713.339-1.15.339-.427 0-.765-.123-.952-.347a.677.677 0 0 1-.142-.573c.071-.39.397-.52.613-.607.174-.069.26-.11.287-.185.043-.113-.18-.35-.328-.507-.222-.235-.432-.456-.399-.739a.52.52 0 0 1 .25-.377.94.94 0 0 1 .529-.159c.202 0 .39.057.588.118.71.224 1.139.715 1.256 1.426.118.698-.068 1.24-.552 1.611zM6.258 8.955c-.35-.294-.424-.71-.815-.901a.78.78 0 0 0-.358-.089c-.335 0-.627.217-1.036.24-.344.017-.6.036-.872.036-.167 0-.342-.008-.544-.028v9.812c.11.048.23.08.371.109.155.03.293.057.425.057.174 0 .335-.05.504-.21.347-.33.152-.857.348-1.351.239-.598.321-1.154.815-1.356a.803.803 0 0 1 .309-.064c.12 0 .24.029.389.064.397.097.53.51.929.602.198.046.385.103.559.103.178 0 .342-.06.487-.254.2-.261.011-.664.232-.9a.488.488 0 0 1 .397-.17c.092 0 .191.013.3.017.03 0 .054.008.082.012v-4.16a6.396 6.396 0 0 0-1.01-.815c-.561-.376-.982-.31-1.512-.754zm4.649 7.072c.056.003.112.006.167.006.322 0 .608-.08.763-.457.126-.314-.098-.57 0-.905.11-.39.46-.37.58-.752.12-.377.117-.669 0-1.05-.18-.59-.579-.711-1.046-.906a.687.687 0 0 0-.263-.052c-.279 0-.528.155-.792.155a.607.607 0 0 1-.341-.104c-.305-.197-.39-.498-.61-.793v3.8c.223.19.429.431.728.607.314.185.469.43.814.45z"/></svg>