<svg viewBox="0 0 24 24" xmlns="http://www.w3.org/2000/svg"><path d="M6.44 5.8a6.253 6.253 0 0 0-4.8 3.439 7.274 7.274 0 0 0-.545 1.661c-.104.556-.104 1.644 0 2.2.244 1.308.805 2.366 1.762 3.322.919.917 1.842 1.42 3.133 1.707.532.119 1.803.128 2.349.018 2.055-.416 3.731-1.762 4.551-3.655a7.122 7.122 0 0 0 .467-1.666 8.29 8.29 0 0 0 0-1.652c-.37-2.657-2.344-4.769-4.953-5.299-.441-.089-1.55-.132-1.964-.075m10.244.381c-.531.149-1.096.606-1.497 1.21-.538.81-.936 2.016-1.114 3.369-.064.49-.064 1.99 0 2.48.277 2.108 1.079 3.772 2.106 4.365 1.16.669 2.363.071 3.193-1.589.611-1.219.901-2.837.822-4.59-.113-2.533-1.137-4.68-2.478-5.191-.284-.109-.75-.133-1.032-.054m5.023.658c-.321.282-.61 1.306-.766 2.721-.341 3.079.052 6.974.766 7.601.16.14.192.144.36.041.359-.219.685-1.439.861-3.222.068-.692.068-3.268 0-3.96-.176-1.783-.502-3.003-.861-3.222-.168-.103-.2-.099-.36.041" fill-rule="evenodd"/></svg>