<svg viewBox="0 0 24 24" xmlns="http://www.w3.org/2000/svg"><path d="M3.46 2.819a1.438 1.438 0 0 1-.147.037c-.155.035-.353.216-.438.402-.07.156-.073.504-.074 8.733-.001 7.647.006 8.588.061 8.72a.734.734 0 0 0 .398.413c.154.071.483.074 8.74.074s8.586-.003 8.74-.074a.734.734 0 0 0 .398-.413c.055-.132.062-1.073.062-8.711s-.007-8.579-.062-8.711a.802.802 0 0 0-.358-.403c-.11-.061-.799-.067-8.7-.073-4.719-.004-8.598-.001-8.62.006m7.535 7.409c.714 1.567 1.309 2.842 1.322 2.834.013-.008.536-1.294 1.163-2.857l1.14-2.843 1.63-.001 1.63-.001v.094c0 .068-.141.226-.52.583l-.52.49v6.934l.5.499c.399.398.5.521.5.609v.111h-4.6v-.089c0-.062.164-.254.52-.611l.521-.522-.011-2.716-.01-2.717-1.3 3.297-1.301 3.298-.181.012-.181.012-1.516-3.304c-.834-1.818-1.53-3.314-1.548-3.325-.049-.03-.041 4.496.008 4.665.024.086.303.457.719.96.438.527.68.851.68.91v.09H6.12v-.097c0-.066.214-.357.68-.921.373-.454.689-.865.701-.914.012-.048.017-1.349.01-2.89L7.5 9.016l-.61-.732c-.416-.499-.61-.762-.61-.828v-.097l1.709.011 1.708.01 1.298 2.848" fill-rule="evenodd"/></svg>