<svg viewBox="0 0 24 24" xmlns="http://www.w3.org/2000/svg"><path d="M2.44 12v9.52h19.08V2.48H2.44V12m6.22-1.162c.924 1.341 1.703 2.439 1.73 2.44.039.002.05-.512.05-2.438V8.4h1.28v7.16l-.59-.002-.59-.002-1.68-2.438c-.924-1.34-1.693-2.438-1.71-2.438-.016 0-.03 1.098-.03 2.44v2.44H5.84V8.4h1.141l1.679 2.438m8.05-2.345c.711.187 1.209.627 1.386 1.224.094.318.085.864-.018 1.14-.119.318-.384.593-.731.759-.158.075-.32.147-.36.16-.115.037-.045.091.156.118.429.059.925.449 1.149.905.125.253.128.273.128.8 0 .526-.004.549-.128.811-.238.502-.633.824-1.272 1.035-.273.09-.326.092-2.09.106l-1.81.014V8.394l1.67.017c1.384.014 1.713.028 1.92.082m-2.31 1.964v.983h.773c.857 0 1.059-.036 1.335-.236a.99.99 0 0 0 .372-.746c0-.399-.159-.673-.492-.848-.205-.108-.219-.109-1.098-.123l-.89-.014v.984m0 2.983v1.04h.872c.966 0 1.231-.041 1.506-.231.5-.347.474-1.191-.047-1.59-.3-.229-.471-.259-1.458-.259H14.4v1.04" fill-rule="evenodd"/></svg>