<?xml version="1.0" encoding="utf-8"?>
<svg viewBox="0 0 24 24" xmlns="http://www.w3.org/2000/svg">
  <g transform="matrix(0.027012, 0, 0, 0.027012, -2.081666, 2.021844)" style="">
    <g transform="matrix(0.120082, 0, 0, -0.120082, -113.207954, 806.796326)" fill="#000000" stroke="none" style="">
      <path d="M7354 6241 c-53 -24 -107 -88 -129 -154 -10 -30 -20 -94 -23 -154 -3 -85 -1 -114 17 -172 40 -132 139 -253 321 -391 176 -134 230 -214 238 -352 11 -187 -57 -312 -211 -388 -82 -40 -140 -47 -266 -30 -85 11 -104 11 -153 -4 -31 -9 -67 -16 -80 -16 -14 0 -95 43 -182 95 -274 164 -364 189 -681 190 -253 0 -318 -10 -526 -81 -135 -46 -177 -64 -499 -222 -113 -55 -237 -110 -275 -121 -110 -35 -246 -51 -422 -51 -182 0 -202 -6 -182 -58 6 -15 16 -34 23 -42 29 -34 28 -39 -11 -28 -21 5 -45 16 -53 23 -43 38 -206 45 -326 15 -204 -53 -392 -228 -465 -436 -24 -67 -25 -122 -3 -131 10 -3 47 9 88 29 39 19 86 39 103 42 41 9 42 3 8 -100 -31 -96 -33 -162 -4 -198 11 -14 27 -26 35 -26 8 0 58 41 111 90 66 62 104 90 120 90 16 0 23 -4 19 -12 -39 -94 -47 -231 -15 -251 18 -11 26 -8 154 67 107 63 263 108 423 123 50 5 57 2 115 -37 34 -23 98 -59 143 -81 98 -47 342 -129 479 -159 55 -13 104 -26 108 -30 12 -11 -72 -117 -164 -207 -125 -122 -270 -235 -338 -261 -106 -41 -159 -103 -186 -217 -9 -38 -39 -90 -120 -206 -60 -85 -156 -221 -213 -304 -262 -374 -251 -362 -355 -385 -68 -15 -138 -53 -175 -94 -37 -42 -56 -100 -41 -127 11 -22 26 -23 65 -9 36 14 40 7 15 -28 -35 -50 -90 -172 -101 -228 -8 -40 -8 -68 0 -108 11 -54 40 -94 59 -81 6 3 29 43 52 88 46 93 78 135 200 262 47 50 110 128 139 175 90 145 218 323 429 595 196 253 230 293 274 310 85 34 152 104 171 179 11 41 23 52 239 215 l229 172 125 45 c69 24 129 44 134 44 11 0 -20 -72 -36 -85 -8 -5 -36 -70 -64 -143 -56 -146 -64 -207 -35 -268 9 -18 31 -43 49 -54 51 -32 101 -26 177 20 50 30 144 64 399 144 458 143 474 148 522 144 l42 -3 11 -62 c13 -72 35 -110 71 -124 39 -15 55 4 48 60 -10 80 4 80 86 -2 77 -77 140 -117 184 -117 34 0 42 24 21 67 -38 81 -231 366 -264 391 -32 25 -43 27 -126 27 -99 0 -55 12 -706 -194 -124 -40 -234 -74 -244 -77 -25 -8 -19 7 38 94 34 51 58 75 93 95 72 39 133 85 133 101 0 8 11 28 25 44 l24 29 168 6 c332 13 537 72 705 205 146 114 207 264 208 508 0 81 4 125 13 136 6 8 59 44 117 79 260 158 390 290 498 504 74 148 100 334 68 484 -37 175 -124 292 -342 460 -136 105 -165 138 -171 195 -6 53 7 64 112 94 55 15 107 20 235 21 206 3 233 18 102 56 -34 10 -59 22 -55 26 4 4 35 9 68 11 45 2 60 7 60 18 0 11 -46 30 -155 66 -126 41 -171 61 -235 104 -128 87 -204 106 -281 71z" style=""/>
    </g>
    <g transform="matrix(2.020579, 0, 0, 2.020579, 451.606628, 373.042114)" id="g-4" style="">
      <g transform="matrix(1.3333, 0, 0, 1.3333, -10.753677, 8.5133)" vector-effect="non-scaling-stroke">
        <path style="stroke: none; stroke-width: 1; stroke-dasharray: none; stroke-linecap: butt; stroke-dashoffset: 0; stroke-linejoin: miter; stroke-miterlimit: 4; fill-rule: nonzero; opacity: 1;" transform=" translate(-114.5156, 109.5078)" d="M 189.609375 -219.015625 C 193.566406 -219.015625 196.796875 -217.707031 199.296875 -215.09375 C 201.804688 -212.488281 203.0625 -209.207031 203.0625 -205.25 L 203.0625 -15.328125 C 203.0625 -10.953125 201.648438 -7.300781 198.828125 -4.375 C 196.015625 -1.457031 192.414062 0 188.03125 0 C 185.738281 0 183.5 -0.363281 181.3125 -1.09375 C 179.125 -1.820312 177.40625 -2.914062 176.15625 -4.375 L 53.1875 -164.578125 L 53.1875 -13.765625 C 53.1875 -9.804688 51.878906 -6.519531 49.265625 -3.90625 C 46.660156 -1.300781 43.378906 0 39.421875 0 C 35.460938 0 32.226562 -1.300781 29.71875 -3.90625 C 27.21875 -6.519531 25.96875 -9.804688 25.96875 -13.765625 L 25.96875 -204 C 25.96875 -208.375 27.375 -211.96875 30.1875 -214.78125 C 33.007812 -217.601562 36.503906 -219.015625 40.671875 -219.015625 C 43.171875 -219.015625 45.566406 -218.546875 47.859375 -217.609375 C 50.160156 -216.671875 51.9375 -215.363281 53.1875 -213.6875 L 175.828125 -53.1875 L 175.828125 -205.25 C 175.828125 -209.207031 177.128906 -212.488281 179.734375 -215.09375 C 182.347656 -217.707031 185.640625 -219.015625 189.609375 -219.015625 Z M 189.609375 -219.015625" stroke-linecap="round"/>
      </g>
    </g>
    <g transform="matrix(0.120082, 0, 0, -0.120082, -119.266396, 804.953003)" fill="#000000" stroke="none" style="">
      <path d="M7354 6241 c-53 -24 -107 -88 -129 -154 -10 -30 -20 -94 -23 -154 -3 -85 -1 -114 17 -172 40 -132 139 -253 321 -391 176 -134 230 -214 238 -352 11 -187 -57 -312 -211 -388 -82 -40 -140 -47 -266 -30 -85 11 -104 11 -153 -4 -31 -9 -67 -16 -80 -16 -14 0 -95 43 -182 95 -274 164 -364 189 -681 190 -253 0 -318 -10 -526 -81 -135 -46 -177 -64 -499 -222 -113 -55 -237 -110 -275 -121 -110 -35 -246 -51 -422 -51 -182 0 -202 -6 -182 -58 6 -15 16 -34 23 -42 29 -34 28 -39 -11 -28 -21 5 -45 16 -53 23 -43 38 -206 45 -326 15 -204 -53 -392 -228 -465 -436 -24 -67 -25 -122 -3 -131 10 -3 47 9 88 29 39 19 86 39 103 42 41 9 42 3 8 -100 -31 -96 -33 -162 -4 -198 11 -14 27 -26 35 -26 8 0 58 41 111 90 66 62 104 90 120 90 16 0 23 -4 19 -12 -39 -94 -47 -231 -15 -251 18 -11 26 -8 154 67 107 63 263 108 423 123 50 5 57 2 115 -37 34 -23 98 -59 143 -81 98 -47 342 -129 479 -159 55 -13 104 -26 108 -30 12 -11 -72 -117 -164 -207 -125 -122 -270 -235 -338 -261 -106 -41 -159 -103 -186 -217 -9 -38 -39 -90 -120 -206 -60 -85 -156 -221 -213 -304 -262 -374 -251 -362 -355 -385 -68 -15 -138 -53 -175 -94 -37 -42 -56 -100 -41 -127 11 -22 26 -23 65 -9 36 14 40 7 15 -28 -35 -50 -90 -172 -101 -228 -8 -40 -8 -68 0 -108 11 -54 40 -94 59 -81 6 3 29 43 52 88 46 93 78 135 200 262 47 50 110 128 139 175 90 145 218 323 429 595 196 253 230 293 274 310 85 34 152 104 171 179 11 41 23 52 239 215 l229 172 125 45 c69 24 129 44 134 44 11 0 -20 -72 -36 -85 -8 -5 -36 -70 -64 -143 -56 -146 -64 -207 -35 -268 9 -18 31 -43 49 -54 51 -32 101 -26 177 20 50 30 144 64 399 144 458 143 474 148 522 144 l42 -3 11 -62 c13 -72 35 -110 71 -124 39 -15 55 4 48 60 -10 80 4 80 86 -2 77 -77 140 -117 184 -117 34 0 42 24 21 67 -38 81 -231 366 -264 391 -32 25 -43 27 -126 27 -99 0 -55 12 -706 -194 -124 -40 -234 -74 -244 -77 -25 -8 -19 7 38 94 34 51 58 75 93 95 72 39 133 85 133 101 0 8 11 28 25 44 l24 29 168 6 c332 13 537 72 705 205 146 114 207 264 208 508 0 81 4 125 13 136 6 8 59 44 117 79 260 158 390 290 498 504 74 148 100 334 68 484 -37 175 -124 292 -342 460 -136 105 -165 138 -171 195 -6 53 7 64 112 94 55 15 107 20 235 21 206 3 233 18 102 56 -34 10 -59 22 -55 26 4 4 35 9 68 11 45 2 60 7 60 18 0 11 -46 30 -155 66 -126 41 -171 61 -235 104 -128 87 -204 106 -281 71z" style=""/>
    </g>
  </g>
</svg>