<svg viewBox="0 0 24 24" xmlns="http://www.w3.org/2000/svg"><path d="M10.8 2.779a9.126 9.126 0 0 0-5.344 2.637 12.15 12.15 0 0 0-.745.807 9.571 9.571 0 0 0-1.713 3.45 9.369 9.369 0 0 0 .541 6.172 9.37 9.37 0 0 0 4.241 4.434l.48.242.024-.77c.013-.424.045-.883.071-1.019.026-.136.323-1.409.66-2.828l.611-2.58-.11-.332c-.368-1.108-.156-2.377.51-3.06.132-.135.309-.261.481-.343.246-.116.308-.129.633-.127.309.001.389.016.564.107.432.225.624.571.648 1.173.021.517-.036.794-.432 2.118a26.085 26.085 0 0 0-.362 1.291c-.26 1.327 1.065 2.189 2.382 1.55 1.192-.579 2.03-2.494 2.031-4.641.001-1.144-.341-2.015-1.046-2.667-.691-.639-1.615-.953-2.805-.953-1.372 0-2.456.424-3.336 1.304-.829.829-1.31 2.09-1.25 3.276.033.664.207 1.158.583 1.657.197.263.202.331.056.914-.128.512-.248.676-.461.633-.238-.047-.65-.315-.955-.621-.46-.459-.751-1.018-.927-1.776-.117-.504-.126-1.679-.017-2.187.33-1.543 1.306-2.919 2.687-3.789.11-.07.389-.216.62-.327 1.07-.509 2.14-.716 3.48-.671 1.004.034 1.705.193 2.517.572.859.401 1.734 1.135 2.214 1.858.753 1.136 1.011 2.251.866 3.74-.208 2.146-1.116 3.858-2.536 4.783a4.303 4.303 0 0 1-1.338.584c-.328.088-.472.103-1.003.106-.699.004-.869-.031-1.42-.295-.33-.158-.832-.571-.88-.723-.028-.086-.1-.107-.1-.028 0 .027-.151.637-.336 1.354-.375 1.456-.55 1.943-.947 2.634-.193.337-.252.47-.215.492.067.039.67.182 1.066.251 2.5.44 5.222-.266 7.288-1.891.397-.311 1.281-1.207 1.572-1.592 1.314-1.738 1.936-3.586 1.934-5.738-.002-1.494-.295-2.741-.963-4.1-.479-.974-1.047-1.748-1.866-2.542a9.172 9.172 0 0 0-5.27-2.54c-.532-.07-1.843-.07-2.383.001" fill-rule="evenodd"/></svg>