<!-- Generated by IcoMoon.io -->
<svg version="1.1" xmlns="http://www.w3.org/2000/svg" width="1024" height="1024" viewBox="0 0 1024 1024">
<title></title>
<g id="icomoon-ignore">
</g>
<path fill="#000" d="M134.613 511.445v377.941h755.84v-755.84h-755.84v377.899zM583.851 258.731c2.347 2.517 2.048 5.291-2.517 40.747-3.541 26.88-5.76 38.827-7.381 40.448-1.92 1.92-6.059 1.749-38.827-2.517-42.667-5.589-42.965-5.589-44.715-8.875-0.768-1.621 0.299-13.696 2.944-34.219 2.347-17.451 4.437-32.043 4.437-32.64s1.024-2.048 2.347-3.243c1.92-2.048 7.808-2.347 41.813-2.347 36.267 0 39.68 0.128 41.899 2.645zM499.115 366.037c33.664 4.437 66.133 9.472 72.021 11.093 32.213 8.832 51.2 28.16 55.040 56.107 5.205 36.437-14.123 71.253-42.027 75.989-13.611 2.219-14.037 3.413-3.712 7.125 14.336 5.12 26.453 17.408 32.64 33.067 2.645 6.912 3.413 11.52 3.413 24.064 0 41.899-19.797 69.077-56.277 77.355-18.133 4.139-37.931 3.072-99.797-5.035-65.707-8.533-64.213-8.405-65.835-11.52-0.853-1.621 5.035-50.176 16.213-135.381 9.643-73.045 17.579-133.589 17.579-134.613 0-2.517 4.267-6.357 7.083-6.357 1.365 0 29.995 3.712 63.659 8.107zM488.619 684.629c26.453 3.669 36.48 5.461 38.229 7.253 2.219 2.347 2.091 4.864-2.048 36.437-2.517 18.773-5.333 34.987-6.357 36.309-2.816 3.413-81.323 3.413-84.309-0.128-1.451-1.92-1.621-5.163-0.128-17.28 3.968-36.608 8.277-63.317 10.197-65.408 2.773-2.645 2.773-2.645 44.416 2.816z"></path>
<path fill="#000" d="M495.701 427.605c-2.048 11.819-5.461 42.667-4.992 45.781s1.621 3.541 12.971 4.992c36.608 5.163 44.587 0.299 44.885-27.605 0.128-10.923-0.299-13.269-2.816-16.085-4.864-5.291-10.197-7.381-26.112-9.6-22.315-3.072-22.912-3.072-23.893 2.56zM482.261 532.437c-1.749 4.864-7.808 56.661-6.613 57.728 1.451 1.621 28.032 5.461 38.4 5.461 9.728 0 17.237-3.541 21.077-9.899 1.323-2.517 3.243-9.899 4.267-16.555 3.413-24.661-3.243-31.573-34.987-35.584-7.253-0.853-15.061-2.048-17.408-2.347-2.517-0.597-4.267-0.128-4.693 1.195z"></path>
</svg>
