<svg viewBox="0 0 24 24" xmlns="http://www.w3.org/2000/svg"><path d="M11.508 3.643c-.078.699-.078 1.294-.026 1.346.13.129 2.768.543 2.872.465.025-.051.129-.75.232-1.552l.182-1.475h-3.105l-.155 1.216zm-3.001 7.115c-.31 2.457-.62 4.786-.699 5.148-.129.672-.103.698 1.837.983 2.639.388 4.14.362 5.019-.104.75-.362 1.32-1.5 1.32-2.56 0-.725-.673-1.682-1.398-1.967-.517-.207-.517-.207.207-.491 1.061-.414 1.423-1.01 1.45-2.303 0-.88-.156-1.242-.674-1.733-.388-.362-.776-.647-.853-.647s-1.268-.181-2.613-.388-2.587-.388-2.742-.388-.492 1.837-.854 4.45zm4.838-1.811c.18.18.31.543.31.853 0 .725-.491 1.165-1.268 1.165-1.008 0-1.241-.285-1.112-1.372.104-.88.181-.957.931-.957.466 0 .958.13 1.139.31zm-.285 4.294c.362.44.181 1.604-.284 1.94-.26.181-1.915.078-2.122-.155-.052-.052-.026-.62.052-1.293l.155-1.164.957.129c.518.077 1.087.31 1.242.543zM9.516 18.83c0 .181-.078.88-.155 1.552l-.181 1.19h3.104l.181-1.32c.104-.723.155-1.344.104-1.396-.052-.026-.75-.13-1.553-.233-1.19-.13-1.5-.077-1.5.207z"/></svg>