<svg viewBox="0 0 24 24" xmlns="http://www.w3.org/2000/svg"><path d="M8.41 5.718a3.59 3.59 0 1 1 7.18 0V12a3.59 3.59 0 0 1-7.18 0V5.718Z"/><path d="M6.84 11.86V12a5.157 5.157 0 0 0 8.807 3.648A5.16 5.16 0 0 0 17.16 12v-.14c0-.496.4-.897.897-.897h.45c.495 0 .896.4.896.897V12a7.412 7.412 0 0 1-2.168 5.236 7.412 7.412 0 0 1-4.114 2.082v1.656a.897.897 0 0 1-.897.897h-.448a.898.898 0 0 1-.899-.897v-1.656a7.412 7.412 0 0 1-4.113-2.082A7.41 7.41 0 0 1 4.596 12v-.14c0-.496.4-.897.897-.897h.45c.494 0 .896.4.896.897Z"/></svg>