<svg viewBox="0 0 24 24" xmlns="http://www.w3.org/2000/svg"><path d="M18.26 3.574c-.437.144-.856.48-1.069.856-.065.116-.132.21-.148.21-.016 0-.775-.179-1.686-.397-.911-.218-1.767-.422-1.902-.453l-.245-.057-.752 2.331-.752 2.33-.343.023c-1.287.087-2.331.278-3.323.608-.673.224-1.482.588-1.974.888a5.084 5.084 0 0 1-.285.167c-.006 0-.128-.079-.271-.175-.893-.599-2.041-.485-2.82.279-.758.744-.901 1.899-.351 2.837.114.195.434.542.628.682l.107.077-.035.34c-.099.946.23 2.061.874 2.96.456.636 1.244 1.352 2.024 1.837 1.788 1.114 4.301 1.697 6.716 1.56 2.844-.161 5.241-1.134 6.81-2.765.964-1.001 1.429-2.072 1.424-3.281a4.38 4.38 0 0 0-.023-.541c-.015-.051.033-.107.181-.207.55-.375.955-1.147.955-1.824 0-1.107-.726-2.033-1.791-2.284-.462-.109-1.078-.028-1.517.199a2.705 2.705 0 0 0-.308.205l-.186.142-.334-.201c-1.35-.812-3.161-1.354-4.924-1.472-.249-.016-.438-.046-.434-.069.007-.048 1.184-3.713 1.199-3.734.01-.013 3.048.701 3.156.741.023.009.062.142.086.297.231 1.469 1.985 2.104 3.071 1.112.414-.379.622-.842.622-1.39 0-.782-.412-1.414-1.141-1.752-.205-.095-.298-.112-.659-.121-.269-.007-.478.008-.58.042m-9.039 8.39c.13.024.306.079.392.122.228.117.499.407.62.666.093.198.107.278.106.608-.002.335-.015.405-.112.591-.229.44-.631.734-1.082.79-.46.058-1.023-.202-1.292-.596-.619-.904-.029-2.106 1.09-2.221.023-.002.149.016.278.04m6.221.038c.079.02.239.105.357.188.573.402.76 1.149.446 1.786-.238.484-.68.763-1.205.759a1.392 1.392 0 0 1-1.265-.775c-.103-.197-.115-.26-.115-.6 0-.336.013-.407.113-.61.317-.645.957-.932 1.669-.748m-6.039 4.885c.502.403 1.088.598 2.047.679.417.035.684.035 1.103 0 .941-.079 1.549-.281 2.044-.679.305-.246.431-.265.606-.09.088.088.117.154.117.269 0 .133-.029.179-.236.376-.527.502-1.338.786-2.523.882-1.523.124-2.972-.227-3.651-.885-.2-.194-.23-.243-.23-.374 0-.114.029-.18.117-.268.175-.175.301-.156.606.09" fill-rule="evenodd"/></svg>