<svg viewBox="0 0 24 24" xmlns="http://www.w3.org/2000/svg"><path d="m2.85 4.59.01 1.75.64.027c4.275.178 8.254 2.217 10.952 5.613a18.835 18.835 0 0 1 1.379 2.08 14.731 14.731 0 0 1 1.795 6.461l.027.639h3.519l-.027-.65c-.145-3.422-1.142-6.557-2.973-9.347C15.205 6.642 10.496 3.683 5.181 3a25.837 25.837 0 0 0-2.171-.159l-.171-.001.011 1.75m-.01 6.219v1.741l.41.027c1.275.086 2.262.341 3.33.862a8.536 8.536 0 0 1 4.82 7.459v.262h3.532l-.024-.57a12.064 12.064 0 0 0-1.775-5.745c-2.101-3.407-5.762-5.577-9.703-5.751l-.59-.026v1.741m2.014 5.512c-1.125.203-2.013 1.261-2.013 2.399 0 1.076.787 2.067 1.857 2.339.306.078.858.078 1.164.001 1.111-.282 1.931-1.388 1.843-2.485a2.49 2.49 0 0 0-1.695-2.172c-.289-.097-.851-.137-1.156-.082" fill-rule="evenodd"/></svg>