<svg viewBox="0 0 24 24" xmlns="http://www.w3.org/2000/svg"><path d="M8.83 2.043c-.415.098-.936.481-1.189.875a2.038 2.038 0 0 0-.006 2.126c.27.425.72.747 1.222.875.278.071.443.081 1.389.081h1.074V4.824c0-1.06-.008-1.201-.079-1.433a1.997 1.997 0 0 0-1.315-1.312c-.272-.085-.814-.102-1.096-.036m5.242.034a2.01 2.01 0 0 0-1.313 1.314c-.076.247-.079.376-.078 3.243.001 1.915.016 3.051.042 3.166.107.465.505 1.005.918 1.246a2.091 2.091 0 0 0 1.976.043c.291-.155.669-.545.821-.845.238-.472.241-.506.241-3.584 0-3.041-.004-3.101-.223-3.567-.135-.286-.557-.721-.836-.863-.474-.24-1.086-.3-1.548-.153M3.551 7.381c-.366.09-.707.286-.975.559-1.065 1.085-.577 2.877.901 3.316.192.056.57.064 3.18.063 1.899-.001 3.028-.016 3.143-.042a1.993 1.993 0 0 0 1.519-1.92c.002-.886-.5-1.607-1.342-1.926l-.237-.09-2.98-.008c-2.444-.006-3.021.002-3.209.048m16 .001c-.544.132-1.101.562-1.324 1.023-.204.421-.227.6-.227 1.803v1.112h1.153c1.264 0 1.375-.015 1.815-.248.278-.148.665-.541.807-.822a1.99 1.99 0 0 0-.351-2.31 1.977 1.977 0 0 0-1.873-.558m-16.06 5.36a1.953 1.953 0 0 0-.875.505c-.916.88-.782 2.389.275 3.084.376.248.635.323 1.109.323.343 0 .464-.017.66-.093.662-.255 1.107-.749 1.279-1.419.048-.186.061-.483.061-1.35V12.68l-1.15.003c-.857.002-1.203.017-1.359.059m5.313.001c-.697.188-1.273.806-1.426 1.532-.046.213-.057.814-.057 3.065 0 3.041.006 3.128.224 3.573.355.725 1.239 1.197 2.034 1.084.8-.113 1.43-.641 1.662-1.391.076-.243.079-.386.079-3.266 0-2.887-.003-3.022-.079-3.266a2.04 2.04 0 0 0-1.417-1.339c-.262-.07-.744-.066-1.02.008m5.376-.007a1.973 1.973 0 0 0-1.499 1.907c-.002.597.203 1.082.622 1.474.137.128.346.28.463.337.47.228.442.226 3.574.226 3.136 0 3.101.002 3.58-.228.287-.139.714-.566.855-.857.306-.629.299-1.28-.021-1.88-.15-.281-.543-.667-.825-.81-.448-.228-.411-.225-3.607-.222-2.176.003-2.994.017-3.142.053m-1.5 6.44c0 1.055.008 1.202.079 1.43.141.457.411.813.818 1.08 1.302.853 3.02-.095 3.023-1.668a1.968 1.968 0 0 0-1.12-1.791c-.397-.194-.65-.225-1.83-.226L12.68 18v1.176" fill-rule="evenodd"/></svg>