<svg viewBox="0 0 24 24" xmlns="http://www.w3.org/2000/svg"><path class="st0" style="fill:none" d="M0 0h24v24H0z"/><path d="M11.996 2.613c-5.174 0-9.383 4.21-9.383 9.383 0 5.178 4.21 9.39 9.383 9.39 5.177 0 9.39-4.212 9.39-9.39 0-5.174-4.213-9.383-9.39-9.383ZM7.234 15.444a11.386 11.386 0 0 1 3.315-.499c1.888 0 3.752.479 5.391 1.385.098.053.186.228.226.447.04.219.024.443-.04.56a.478.478 0 0 1-.652.187 10.252 10.252 0 0 0-7.951-.808.476.476 0 0 1-.603-.314c-.084-.275.089-.884.314-.958Zm-.41-3.457a14.203 14.203 0 0 1 3.725-.497c2.263 0 4.51.548 6.5 1.585.14.07.242.19.29.338a.588.588 0 0 1-.042.452c-.178.347-.385.58-.517.58a.597.597 0 0 1-.272-.066 12.77 12.77 0 0 0-5.959-1.45c-1.172 0-2.321.154-3.415.457a.585.585 0 0 1-.72-.41c-.087-.33.114-.908.41-.989Zm-.103-2.258a.69.69 0 0 1-.839-.502c-.096-.39.147-.841.5-.93a17.476 17.476 0 0 1 4.168-.508c2.7 0 5.285.607 7.685 1.804a.693.693 0 0 1 .313.932c-.112.225-.355.467-.623.467a.72.72 0 0 1-.303-.068 15.655 15.655 0 0 0-7.072-1.663c-1.279 0-2.567.157-3.829.468Z"/></svg>