<svg viewBox="0 0 24 24" xmlns="http://www.w3.org/2000/svg"><path d="M11.788 6.475a.85.85 0 0 1-.85-.85V3.5a.85.85 0 0 1 .85-.85h.425a.85.85 0 0 1 .85.85v2.125a.85.85 0 0 1-.85.85h-.425Zm3.97 1.468a.85.85 0 0 1 0-1.202L17.26 5.24a.85.85 0 0 1 1.202 0l.301.3a.85.85 0 0 1 0 1.202L17.26 8.244a.85.85 0 0 1-1.202 0l-.3-.3Zm1.768 3.845a.85.85 0 0 1 .85-.85h2.126a.85.85 0 0 1 .85.85v.425a.85.85 0 0 1-.85.85h-2.126a.85.85 0 0 1-.85-.85v-.425Zm-1.468 3.97a.85.85 0 0 1 1.202 0l1.503 1.502a.85.85 0 0 1 0 1.202l-.3.301a.85.85 0 0 1-1.203 0l-1.503-1.503a.85.85 0 0 1 0-1.202l.301-.3Zm-7.814.3a.85.85 0 0 1 0 1.202l-1.503 1.503a.85.85 0 0 1-1.202 0l-.3-.3a.85.85 0 0 1 0-1.203l1.502-1.503a.85.85 0 0 1 1.202 0l.301.301Zm-1.769-3.845a.85.85 0 0 1-.85.85H3.5a.85.85 0 0 1-.85-.85v-.425a.85.85 0 0 1 .85-.85h2.125a.85.85 0 0 1 .85.85v.425Zm1.468-3.969a.85.85 0 0 1-1.202 0L5.24 6.741a.85.85 0 0 1 0-1.202l.3-.3a.85.85 0 0 1 1.202 0L8.244 6.74a.85.85 0 0 1 0 1.202l-.3.301Zm-.193 3.757a4.25 4.25 0 1 1 8.502 0 4.25 4.25 0 0 1-8.502 0Zm4.463 5.525a.85.85 0 0 1 .85.85v2.126a.85.85 0 0 1-.85.85h-.425a.85.85 0 0 1-.85-.85v-2.126a.85.85 0 0 1 .85-.85h.425Z"/></svg>