<svg viewBox="0 0 24 24" xmlns="http://www.w3.org/2000/svg"><path class="st0" style="fill:none" d="M0 0h24v24H0z"/><path class="x19hqcy" d="M16.784 11.27a5.613 5.613 0 0 0-.263-.12c-.154-2.842-1.708-4.47-4.317-4.486h-.033c-1.562 0-2.859.664-3.658 1.877l1.436.984c.595-.907 1.531-1.097 2.222-1.097h.024c.858.004 1.506.255 1.925.742.305.355.51.844.611 1.461a11.083 11.083 0 0 0-2.465-.118c-2.482.144-4.075 1.59-3.967 3.6.054 1.019.562 1.895 1.429 2.469.735.485 1.68.721 2.661.667 1.297-.07 2.314-.567 3.024-1.469.539-.688.882-1.579 1.031-2.701.619.372 1.076.863 1.329 1.452.431 1.003.456 2.654-.89 3.997-1.178 1.177-2.595 1.686-4.735 1.703-2.374-.019-4.171-.779-5.338-2.265-1.094-1.389-1.659-3.399-1.68-5.967.021-2.569.586-4.577 1.68-5.968 1.167-1.484 2.964-2.247 5.338-2.262 2.39.018 4.219.783 5.432 2.274.593.732 1.043 1.651 1.339 2.723l1.681-.447c-.359-1.321-.921-2.458-1.688-3.403-1.555-1.912-3.829-2.891-6.758-2.911h-.011c-2.925.02-5.171 1.004-6.683 2.922-1.343 1.709-2.036 4.085-2.06 7.066v.011c.024 2.983.717 5.359 2.06 7.067 1.512 1.92 3.758 2.904 6.683 2.924h.011c2.599-.019 4.43-.7 5.941-2.207 1.973-1.972 1.913-4.444 1.262-5.962-.467-1.088-1.356-1.973-2.573-2.556Zm-4.487 4.218c-1.088.061-2.217-.426-2.273-1.471-.04-.776.552-1.641 2.34-1.743.205-.011.405-.018.603-.018.649 0 1.255.064 1.807.184-.205 2.573-1.414 2.991-2.477 3.048Z"/></svg>