<svg viewBox="0 0 24 24" xmlns="http://www.w3.org/2000/svg"><path d="M4.874 2.404c-.574.074-1.215.394-1.659.826-.312.304-.53.633-.704 1.064l-.131.326v7.26c0 6.841.004 7.276.071 7.539a2.965 2.965 0 0 0 2.057 2.111l.312.09H19.1l.27-.093c.53-.183 1-.646 1.194-1.176.087-.238.093-.316.107-1.496l.014-1.246-.272.084c-.259.079-.366.083-2.093.085-2.08.002-2.173-.008-2.797-.321a2.933 2.933 0 0 1-1.377-1.502c-.194-.491-.206-.61-.206-2.015 0-1.503.027-1.706.301-2.251a2.842 2.842 0 0 1 1.293-1.302c.595-.289.53-.281 2.556-.298 1.495-.011 1.887-.003 2.14.045a3.9 3.9 0 0 1 .38.087c.066.026.07-.042.07-1.091 0-.616-.018-1.216-.04-1.335-.094-.508-.486-1.056-.936-1.312-.458-.26.06-.243-7.564-.243-7.709 0-7.186.019-7.509-.272-.222-.201-.309-.406-.31-.733-.001-.234.014-.289.129-.459a1.07 1.07 0 0 1 .67-.445c.099-.017 2.551-.026 5.449-.021l5.268.011.012.469.011.47h1.92l.012-.5c.014-.626-.042-.97-.217-1.32a1.985 1.985 0 0 0-1.415-1.039c-.321-.05-10.896-.047-11.286.003m11.446 8.709c-.143.037-.35.12-.46.184-.279.163-.619.523-.753.798-.207.425-.234.678-.217 1.985.014 1.095.021 1.197.103 1.417.224.605.69 1.056 1.287 1.246.189.06.434.073 1.725.087 1.603.018 2.027-.008 2.407-.15.475-.178.9-.612 1.107-1.131.097-.243.1-.277.113-1.5.008-.805-.002-1.327-.031-1.463a1.977 1.977 0 0 0-1.398-1.473c-.228-.059-.484-.068-1.943-.068-1.452 0-1.715.009-1.94.068" fill-rule="evenodd"/></svg>