<svg viewBox="0 0 24 24" xmlns="http://www.w3.org/2000/svg"><path class="st0" style="fill:none" d="M0 0h24v24H0z"/><path d="M17.821 16.121c-.241.682-1.199 1.247-1.963 1.412-.523.11-1.205.199-3.503-.754C9.774 15.71 6.19 11.901 6.19 9.366c0-1.29.744-2.793 2.045-2.793.626 0 .764.012.97.507.241.582.829 2.016.899 2.163.289.603-.294.956-.717 1.482-.135.158-.288.329-.117.623.17.288.758 1.246 1.622 2.015 1.116.995 2.021 1.312 2.345 1.447.241.1.529.077.705-.111.223-.241.5-.641.782-1.035.199-.283.452-.318.717-.218.179.062 2.454 1.119 2.55 1.288.071.123.071.705-.17 1.387M12.002 2h-.005C6.484 2 2 6.485 2 12c0 2.187.705 4.215 1.904 5.86l-1.246 3.717 3.843-1.229A9.923 9.923 0 0 0 12.002 22C17.515 22 22 17.515 22 12S17.515 2 12.002 2" fill-rule="evenodd"/></svg>