<svg viewBox="0 0 24 24" xmlns="http://www.w3.org/2000/svg"><path class="st0" style="fill:none" d="M0 0h24v24H0z"/><path fill-rule="evenodd" clip-rule="evenodd" d="M4.333 12a7.9 7.9 0 1 1 3.679 6.678.928.928 0 0 0-.763-.105l-2.676.798 1.008-2.357a.931.931 0 0 0-.065-.855A7.854 7.854 0 0 1 4.333 12Zm7.9-9.758c-5.389 0-9.758 4.369-9.758 9.758 0 1.708.439 3.316 1.212 4.714l-1.603 3.749a.93.93 0 0 0 1.121 1.256l4.181-1.248a9.72 9.72 0 0 0 4.847 1.287c5.389 0 9.758-4.369 9.758-9.758 0-5.389-4.369-9.758-9.758-9.758Zm2.131 11.786-1.222.86a8.655 8.655 0 0 1-1.839-1.415 9.491 9.491 0 0 1-1.509-1.965l.776-.659a.928.928 0 0 0 .22-1.145l-.989-1.858a.93.93 0 0 0-1.432-.263l-.293.255c-.706.615-1.122 1.627-.777 2.651a11.222 11.222 0 0 0 2.69 4.299c1.685 1.685 3.397 2.348 4.399 2.607.807.207 1.57-.071 2.108-.51l.549-.448a.93.93 0 0 0-.111-1.518l-1.56-.929a.928.928 0 0 0-1.01.038Z"/></svg>