<svg viewBox="0 0 24 24" xmlns="http://www.w3.org/2000/svg"><path d="M3.184 8.489a14.502 14.502 0 0 1 17.632 0c.438.336 1.068.299 1.433-.115l.662-.75c.365-.415.327-1.049-.108-1.39a17.501 17.501 0 0 0-21.606 0c-.435.341-.473.975-.108 1.39l.662.75c.365.414.995.451 1.433.115Z"/><path d="M6.761 12.103a9.493 9.493 0 0 1 10.558 0c.46.307 1.088.254 1.441-.17l.64-.769c.354-.424.298-1.058-.153-1.377a12.501 12.501 0 0 0-14.414 0c-.451.319-.506.953-.153 1.377l.64.769c.354.424.982.477 1.441.17Z"/><path d="M12.005 15.5c-.598 0-1.187.119-1.734.347-.509.213-1.132.119-1.451-.331l-.58-.815c-.319-.45-.216-1.081.273-1.338a7.489 7.489 0 0 1 6.984 0c.489.257.593.888.273 1.338l-.58.815c-.319.45-.942.544-1.451.331a4.503 4.503 0 0 0-1.734-.347ZM12 21.499a2 2 0 1 0 0-4 2 2 0 0 0 0 4Z"/></svg>