<svg viewBox="0 0 24 24" xmlns="http://www.w3.org/2000/svg"><path class="st0" style="fill:none" d="M0 0h24v24H0z"/><path style="display:inline" d="M3.874 2.633h1.685l1.085 3.34h.105l1.035-3.34h1.7L7.537 7.522v3.467H5.864V7.677l-1.99-5.044Zm5.787 3.599c0-.491.201-.88.604-1.171.403-.291.944-.436 1.624-.436.62 0 1.127.153 1.522.46.396.306.594.7.594 1.183v3.27c0 .542-.195.967-.582 1.276-.388.308-.922.462-1.602.462-.654 0-1.178-.159-1.571-.477-.393-.318-.589-.746-.589-1.285V6.232Zm1.54 3.401c0 .174.053.308.159.404.107.095.259.142.457.142.203 0 .364-.048.483-.145a.491.491 0 0 0 .179-.401V6.184a.391.391 0 0 0-.183-.335.818.818 0 0 0-.479-.128.727.727 0 0 0-.445.128.399.399 0 0 0-.171.335v3.449Zm8.277-4.907v6.332h-1.499v-.699a3.179 3.179 0 0 1-.863.589 2.118 2.118 0 0 1-.87.201c-.346 0-.608-.094-.783-.282-.176-.189-.264-.471-.264-.848V4.726h1.499V9.58c0 .151.032.258.095.326.063.067.164.101.305.101.11 0 .25-.045.418-.134.168-.088.323-.202.463-.34V4.726h1.499Zm-1.404 11.206c-.074-.081-.191-.123-.352-.123-.168 0-.289.042-.362.123-.073.083-.11.219-.11.409v.394h.934v-.394c0-.19-.037-.326-.11-.409Zm-4.43 2.968a.669.669 0 0 0 .255.049c.13 0 .224-.031.286-.095.061-.063.091-.169.091-.313v-2.28c0-.153-.037-.269-.112-.349-.076-.08-.186-.119-.329-.119a.602.602 0 0 0-.223.044.783.783 0 0 0-.218.139v2.764a.878.878 0 0 0 .25.16Zm6.952-4.826c0-1.097-1.127-1.987-2.516-1.987a172.839 172.839 0 0 0-6.08-.093c-2.069-.003-4.097.026-6.08.093-1.389 0-2.516.89-2.516 1.987-.084.868-.12 1.737-.116 2.606-.004.869.032 1.738.116 2.607 0 1.097 1.127 1.987 2.516 1.987 1.983.066 4.011.095 6.08.092a175.33 175.33 0 0 0 6.08-.092c1.389 0 2.516-.89 2.516-1.987.084-.869.12-1.738.116-2.607a25.804 25.804 0 0 0-.116-2.606ZM7.06 19.606v.066H5.869v-5.266H4.638v-.958h3.654v.958H7.06v5.2Zm4.235-4.478v4.544h-1.057v-.503a2.252 2.252 0 0 1-.608.423 1.483 1.483 0 0 1-.614.144c-.245 0-.429-.067-.553-.202-.124-.135-.186-.338-.186-.609v-3.862h1.058v3.482c0 .108.021.186.066.234.044.048.116.072.215.072a.671.671 0 0 0 .295-.095c.118-.064.227-.146.327-.244v-3.449h1.057v.065Zm4.069 1.082v2.52c0 .323-.083.57-.248.742-.166.17-.405.256-.718.256-.207 0-.391-.033-.553-.099a1.382 1.382 0 0 1-.451-.307v.349h-1.067v-6.223h1.067v1.982a1.57 1.57 0 0 1 .453-.316c.161-.072.323-.108.487-.108.334 0 .59.097.766.291.176.193.264.476.264.847v.066Zm3.908.139v1.157H17.25v.792c0 .238.035.404.104.496.07.093.189.139.357.139.176 0 .299-.039.369-.118.069-.077.104-.25.104-.517v-.316h1.088v.407c0 .466-.132.816-.398 1.052-.264.236-.66.353-1.186.353-.474 0-.846-.125-1.118-.375-.272-.25-.408-.594-.408-1.03v-2.105c0-.394.149-.715.448-.964.298-.248.685-.372 1.158-.372.484 0 .855.115 1.115.345.259.229.389.561.389.991v.065Z"/></svg>