<svg viewBox="0 0 24 24" xmlns="http://www.w3.org/2000/svg"><path d="M4 4.484c-.291.056-.727.294-.953.521a1.834 1.834 0 0 0 .009 2.619c.549.549 1.344.711 2.019.413.096-.042.195-.077.219-.077.025 0 .21.165.412.366l.368.366-.317.353c-1.025 1.144-1.792 2.491-2.296 4.035-.413 1.267-.539 2.119-.403 2.744.091.42.364.978.625 1.276.455.52.867.769 2.037 1.232 1.504.594 2.843.928 4.56 1.136.814.098 2.821.097 3.64-.001 1.901-.23 3.491-.655 5.1-1.363.692-.305.929-.46 1.306-.855.723-.758.943-1.661.693-2.844-.457-2.166-1.453-4.122-2.825-5.546L18 8.658l.357-.355.357-.355.194.083c1.106.476 2.369-.229 2.573-1.435.204-1.21-.91-2.318-2.131-2.121-1.221.197-1.935 1.524-1.41 2.62l.098.205-.364.366-.365.367-.245-.19a8.32 8.32 0 0 0-4.044-1.684c-.485-.061-1.539-.05-2.058.022a8.258 8.258 0 0 0-3.795 1.583 3.61 3.61 0 0 1-.397.276c-.016 0-.201-.172-.412-.382l-.384-.383.092-.193c.497-1.038-.157-2.342-1.295-2.583A1.723 1.723 0 0 0 4 4.484m8.966 2.614c3.455.46 6.29 3.439 7.137 7.502.053.253.097.543.097.645.001.5-.196.991-.544 1.356-.296.311-.479.423-1.166.716a16.4 16.4 0 0 1-9.203 1.062c-1.382-.24-2.897-.716-4.067-1.279-.332-.16-.492-.264-.651-.426-.616-.627-.75-1.214-.511-2.254.392-1.709 1.131-3.238 2.171-4.491C7.491 8.409 9.256 7.37 11 7.123l.4-.057c.257-.038 1.183-.019 1.566.032M11.05 9.943a6.798 6.798 0 0 0-4.483 2.651c-.506.678-.967 1.706-.967 2.158 0 .484.306 1.051.723 1.338.248.171.816.397 1.577.629 2.685.819 5.467.832 8.206.041.666-.192 1.443-.499 1.683-.665.436-.3.693-.746.723-1.254.014-.253 0-.352-.093-.621-.679-1.978-2.499-3.607-4.619-4.135-.808-.201-1.943-.26-2.75-.142m-.664 2.783c1.157.433 1.23 1.708.126 2.214-.33.151-.749.199-1.095.127-.552-.116-.893-.351-1.094-.754-.217-.434-.142-.859.214-1.215.457-.457 1.216-.609 1.849-.372m4.22-.068c.337.071.556.183.795.407.607.567.42 1.467-.384 1.857a2.562 2.562 0 0 1-.472.143c-.704.144-1.482-.186-1.767-.749a1.127 1.127 0 0 1-.011-.91c.177-.365.565-.641 1.049-.747.319-.069.469-.069.79-.001" fill-rule="evenodd"/></svg>