<svg viewBox="0 0 24 24" xmlns="http://www.w3.org/2000/svg"><path d="M5.849 3.528c-1.246 1.04-1.977 2-2.652 3.463-.674 1.451-.846 2.423-.777 4.366.069 1.92.286 2.743 1.143 4.458.491.983.743 1.314 1.669 2.252 1.566 1.577 3.097 2.4 5.132 2.8 1.634.308 3.737.126 5.2-.469 1.544-.628 3.247-2.023 4.39-3.612 1.566-2.137 2.194-5.246 1.074-5.246-.32 0-.434.217-.514.972-.137 1.165-.64 2.411-1.44 3.6-.435.629-1.92 2.115-2.024 2.023-.022-.034.023-.206.115-.389.331-.628.343-1.017.068-1.28-.148-.137-.285-.24-.331-.24-.217 0-.549.389-.663.789-.206.663-1.155 1.646-2 2.069-1.086.526-1.91.651-2.96.411-1.407-.308-2.527-1.211-3.19-2.549-.285-.56-.365-.903-.411-1.668-.034-.538-.034-1.098.011-1.258l.069-.285.537.171c.32.091.994.171 1.577.171 1.795 0 3.166-.617 4.367-1.965.708-.8.983-1.246 1.28-2.138.32-.96.32-1.566-.012-1.794s-.388-.229-.663.045c-.148.149-.228.377-.228.652 0 .514-.526 1.68-1.052 2.332-.423.525-1.657 1.383-2.263 1.565-1.086.332-2.983.195-3.063-.217-.046-.274 1.074-1.326 1.829-1.714.8-.4.983-.686.72-1.086-.229-.343-.492-.343-1.178 0-.891.457-1.474.937-1.977 1.657l-.48.686-.32-.229c-1.006-.708-1.817-2.468-1.817-3.931 0-1.52.663-2.847 1.977-3.91.343-.297.4-.617.126-.88-.286-.297-.572-.217-1.269.378zM4.1 9.483a5.724 5.724 0 0 0 1.452 2.697c.366.389.777.766.914.857.217.149.24.217.149.629-.137.594-.137 1.703 0 2.435.114.64.32 1.12.823 1.988.171.298.274.538.228.538-.148 0-1.566-1.178-1.988-1.658-1.155-1.303-1.932-3.12-2.15-5.086-.114-1.029-.102-1.337.138-2.743.137-.8.183-.766.434.343z"/></svg>