<svg viewBox="0 0 24 24" xmlns="http://www.w3.org/2000/svg"><path style="fill-opacity:1;stroke:#fff;stroke-width:10;stroke-miterlimit:4;stroke-dasharray:none;stroke-opacity:1" d="M101.143 213.874C67.104 239.168 67.104 42.67 67.104 42.67c68.077 14.91 136.154 29.82 136.154 62.57-.001 32.75-68.077 83.338-102.115 108.633z" transform="translate(-1.484 -.907) scale(.09975)"/><path style="fill-opacity:.325424;stroke:#fff;stroke-width:2;stroke-miterlimit:4;stroke-dasharray:none;stroke-opacity:1" d="m67.328 76.767 44.676 22.652-11.955-47.192Z" transform="translate(-1.484 -.907) scale(.09975)"/><path style="fill-opacity:.274576;stroke:#fff;stroke-width:2;stroke-miterlimit:4;stroke-dasharray:none;stroke-opacity:1" d="m111.457 98.999-4.45 43.604-36.93-36.93Z" transform="translate(-1.484 -.907) scale(.09975)"/><path style="fill-opacity:.379661;stroke:#fff;stroke-width:2;stroke-miterlimit:4;stroke-dasharray:none;stroke-opacity:1" d="m111.012 99.221 29.143-37.152 25.807 39.377z" transform="translate(-1.484 -.907) scale(.09975)"/><path style="fill-opacity:.447458;stroke:#fff;stroke-width:2;stroke-miterlimit:4;stroke-dasharray:none;stroke-opacity:1" d="m111.457 99.444 57.174 55.172-2.892-53.17z" transform="translate(-1.484 -.907) scale(.09975)"/><path style="fill-opacity:.20678;stroke:#fff;stroke-width:2;stroke-miterlimit:4;stroke-dasharray:none;stroke-opacity:1" d="m106.785 142.38 62.069 12.68-57.175-55.616z" transform="translate(-1.484 -.907) scale(.09975)"/><path style="fill-opacity:.244068;stroke:#fff;stroke-width:2;stroke-miterlimit:4;stroke-dasharray:none;stroke-opacity:1" d="M106.785 142.38 78.31 175.306l62.514 7.563z" transform="translate(-1.484 -.907) scale(.09975)"/><path style="fill-opacity:.216949;stroke:#fff;stroke-width:2;stroke-miterlimit:4;stroke-dasharray:none;stroke-opacity:1" d="m165.962 101.446 29.81 23.582-13.125-46.274Z" transform="translate(-1.484 -.907) scale(.09975)"/><g transform="translate(-1.484 -.907) scale(.09975)"><circle style="fill-opacity:1;stroke:none;stroke-width:4;stroke-miterlimit:4;stroke-dasharray:none;stroke-opacity:1" cx="106.869" cy="142.38" r="2.002"/><circle style="fill-opacity:1;stroke:none;stroke-width:4;stroke-miterlimit:4;stroke-dasharray:none;stroke-opacity:1" cx="111.541" cy="99.221" r="2.002"/><circle style="fill-opacity:1;stroke:none;stroke-width:4;stroke-miterlimit:4;stroke-dasharray:none;stroke-opacity:1" cx="165.908" cy="101.362" r="2.002"/></g></svg>