<svg viewBox="0 0 24 24" xmlns="http://www.w3.org/2000/svg"><g transform="translate(20.812 -17.96) scale(.06232)"><circle r="30" transform="scale(-1 1)" cx="-77" cy="113"/><path d="m72 108.5 56 56" stroke="#000" stroke-width="15"/><circle cx="322" cy="113" r="30"/><path d="m327.5 108.5-56 56" stroke="#000" stroke-width="15"/><path fill-rule="evenodd" clip-rule="evenodd" d="M85.515 292.019c-16.169-7.698-25.579-24.983-22.427-42.612C76.618 173.747 133 117 200.5 117c67.663 0 124.155 57.023 137.509 132.958 3.106 17.66-6.381 34.937-22.605 42.572C280.687 308.868 241.91 318 201 318c-41.335 0-80.493-9.323-115.485-25.981Z" fill="#FFDF6F"/><path d="m338.009 249.958 7.387-1.299-7.387 1.299Zm-22.605 42.572-3.194-6.786 3.194 6.786ZM70.471 250.728C83.544 177.62 137.582 124.5 200.5 124.5v-15c-72.082 0-130.809 60.375-144.795 138.587l14.766 2.641ZM200.5 124.5c63.069 0 117.218 53.379 130.122 126.757l14.774-2.598C331.592 170.166 272.758 109.5 200.5 109.5v15Zm111.71 161.244C278.472 301.621 240.783 310.5 201 310.5v15c42.037 0 81.902-9.386 117.597-26.183l-6.387-13.573ZM201 310.5c-40.196 0-78.255-9.064-112.261-25.253l-6.447 13.544C118.269 315.918 158.526 325.5 201 325.5v-15Zm129.622-59.243c2.49 14.159-5.091 28.219-18.412 34.487l6.387 13.573c19.128-9.002 30.52-29.497 26.799-50.658l-14.774 2.598Zm-274.917-3.17c-3.777 21.124 7.525 41.629 26.587 50.704l6.447-13.544c-13.276-6.32-20.795-20.387-18.268-34.519l-14.766-2.641Z"/><path fill-rule="evenodd" clip-rule="evenodd" d="M114.365 273.209c-13.015-5.301-20.736-19.149-16.226-32.459C112.047 199.704 152.618 170 200.5 170c47.882 0 88.453 29.704 102.361 70.75 4.51 13.31-3.211 27.158-16.226 32.459C260.053 284.035 230.973 290 200.5 290c-30.473 0-59.553-5.965-86.135-16.791Z"/><ellipse cx="235" cy="234" rx="25" ry="20" fill="#fff"/><ellipse cx="163.432" cy="234.012" rx="25" ry="20" fill="#fff"/></g><path d="M2.21 12.62h.86V9.457h-.86Zm0-4.528v.73h.86v-.73Zm3.603 3.72c-.822 0-1.313-.621-1.313-1.45 0-.828.491-1.449 1.313-1.449.498 0 .873.227 1.093.59l.783-.39c-.369-.64-1.042-1.06-1.876-1.06-1.3 0-2.194 1.009-2.194 2.31 0 1.3.893 2.31 2.194 2.31.834 0 1.507-.415 1.876-1.062l-.783-.388c-.22.362-.595.589-1.093.589Zm-.42-1.443a.44.44 0 0 0 .879 0 .435.435 0 0 0-.44-.434c-.24 0-.44.194-.44.434Zm4.819-2.316c-1.3 0-2.2 1.009-2.2 2.31 0 1.3.9 2.31 2.2 2.31 1.3 0 2.194-1.01 2.194-2.31s-.894-2.31-2.194-2.31Zm0 3.759c-.828 0-1.32-.621-1.32-1.45 0-.828.492-1.449 1.32-1.449.822 0 1.313.621 1.313 1.45 0 .828-.491 1.449-1.313 1.449Zm0-1.89a.44.44 0 0 0-.44.44.44.44 0 0 0 .44.44c.24 0 .433-.2.433-.44a.44.44 0 0 0-.433-.44Zm-6.975 4.153v1.688l-1.546-1.71h-.03v2.563h.346v-1.67l1.545 1.695h.033v-2.566Zm1.959-.022c-.715 0-1.23.577-1.23 1.292 0 .715.515 1.296 1.23 1.296.719 0 1.234-.577 1.234-1.292 0-.719-.515-1.296-1.234-1.296Zm0 2.243c-.523 0-.875-.424-.875-.95 0-.527.352-.948.875-.948.526 0 .878.425.878.951 0 .523-.352.947-.878.947Zm0-1.168a.22.22 0 0 0-.218.221.218.218 0 0 0 .218.218.22.22 0 1 0 0-.44Zm1.506.947c.076.178.24.352.457.454l.153-.32a.636.636 0 0 1-.28-.272Zm1.02-.922c-.403-.112-.581-.2-.581-.396 0-.178.142-.359.516-.359.036 0 .083.003.116.007l.196-.312a1.135 1.135 0 0 0-.323-.044c-.527 0-.864.284-.875.698-.015.438.32.595.827.74.432.123.661.21.661.439s-.24.378-.545.374l-.163.34c.055.008.113.012.174.012.585 0 .9-.341.9-.737 0-.457-.387-.617-.903-.762Zm1.905 1.463h.345v-1.702h-.345Zm-.748-2.54v.344h1.84v-.345Zm3.644 2.54h.396l-.548-.973c.301-.127.475-.414.475-.748 0-.454-.316-.82-.83-.82h-.952v.345h.951c.305 0 .476.225.476.475 0 .247-.17.472-.476.472h-.951v1.249h.349v-.904h.599Zm0 0" fill="#20092d"/><path d="M296.47 210.966c.46 2.45.383 2.603-.765 1.608-.69-.536-1.072-1.302-.843-1.685.23-.382-.153-.918-.766-1.148-1.531-.613-3.752 1.072-3.216 2.374.154.536-.076 1.378-.536 1.837-.612.613-.612.843 0 .843.46 0 1.226-.536 1.762-1.149.765-.919 1.225-.995 1.99-.306 1.455 1.225 1.302 2.144-.229 2.144-.766.076-2.374.153-3.676.229-1.531.154-2.22-.076-2.067-.765.076-.536-.689-.919-2.068-.919-1.225 0-3.369-.153-4.747-.46l-2.603-.382 2.144 1.225c2.68 1.531 2.603 2.373-.307 2.986-3.369.689-3.599.613-3.981-.919-.23-.766-.383-.459-.46.842-.076 1.609-.689 2.374-2.527 3.293l-2.527 1.149 2.68-.536c1.838-.307 2.451-.23 1.915.306-.383.459-1.608.919-2.68 1.072-1.072.077-1.915.689-1.915 1.149 0 .536-2.603 3.445-5.743 6.432-3.139 3.062-4.9 4.9-3.828 4.211.995-.689 2.833-1.225 4.058-1.225 1.914 0 2.068.153 1.225 1.684-.459.919-.995 3.446-1.072 5.59l-.153 4.059 3.905-2.987c2.144-1.684 4.748-3.216 5.82-3.445 1.072-.307 2.756-.996 3.752-1.609 1.531-.995 1.761-.995 1.455-.076-.46.995 2.603 4.058 5.436 5.437.689.306.077.382-1.455.153-1.99-.307-2.45-.23-1.761.459.536.536 2.833 1.072 5.131 1.302l4.211.306 4.518-4.211 4.441-4.288 3.752 2.603c6.049 4.365 6.662 3.599 5.36-5.743-.306-1.838-1.225-3.369-3.063-4.824-2.527-2.067-2.603-2.297-1.531-3.828 1.301-1.838 1.531-5.897.383-5.897-.383 0-.766-.765-.766-1.761 0-.919-.383-2.22-.766-2.833-.612-.919-.766-.766-.766.766v1.838l-1.225-1.685c-.612-.919-1.608-1.685-2.22-1.685-.536 0-1.761-.918-2.604-2.144l-1.608-2.067.536 2.68Zm-4.747 16.157c1.684.459 3.675 1.378 4.441 2.067 1.378 1.225 1.531 1.149 2.527-.153 1.302-1.838 5.513-2.45 6.126-.842.765 1.914-.843 6.891-2.068 6.585-.612-.153-1.608-.306-2.297-.23-.689 0-1.608-.689-2.067-1.608-.766-1.608-.843-1.608-.843.383-.076 1.225-.306 2.144-.612 2.144-.23 0-2.757-.919-5.437-1.991-3.139-1.225-6.432-1.991-8.806-1.991-2.067.077-3.675-.076-3.522-.229.153-.154 1.608-1.302 3.293-2.604 3.216-2.603 4.594-2.833 9.265-1.531Zm-11.563 6.738c.23.383-.076.842-.689 1.149-1.148.459-2.22-.536-1.378-1.379.689-.689 1.608-.612 2.067.23Zm8.5.077c.536.918-.153.918-2.297 0-1.455-.613-1.455-.69.153-.69.919-.076 1.914.23 2.144.69Zm-2.068 2.45c-.153.995-.536 1.761-.995 1.761-.383 0-.842-.766-.995-1.761-.154-1.149.153-1.685.995-1.685s1.149.536.995 1.685Zm20.828-.536c0 .612-.306 1.148-.766 1.148-.383 0-.765-.536-.765-1.148 0-.613.382-1.149.765-1.149.46 0 .766.536.766 1.149Zm-16.31 6.202c-.23.23-.919.307-1.455.077-.612-.23-.383-.46.46-.46.842-.076 1.301.154.995.383Z" style="fill:#20092d" transform="translate(-25.378 -24.8) scale(.1465)"/><path d="M301.524 239.834c.689.689 1.531.995 1.838.689.306-.306.076-.842-.536-1.225-1.915-1.225-2.68-.843-1.302.536Zm-23.814 4.9c-.459.766-2.374 1.761-4.135 2.297-3.063.766-5.13 2.451-5.207 4.135 0 .383.536.153 1.225-.536 1.149-1.148 1.379-1.072 3.14.919.995 1.225 2.986 2.604 4.365 3.063 1.378.459 3.292 1.685 4.288 2.68.995.996 1.99 1.685 2.373 1.532.689-.46 7.581 7.121 7.581 8.422 0 .536.689 1.455 1.455 1.991 1.378.996 1.455 1.685.919 7.504-.383 3.523-.996 6.586-1.455 6.892-.46.306-1.072 2.91-1.302 5.819-.23 2.987-.153 4.977.153 4.595.383-.46 1.302-1.149 2.068-1.608 1.914-1.072 6.202-9.572 7.733-15.315 1.455-5.513 1.455-13.4.077-17.994-.689-2.297-.842-3.905-.383-4.748 1.072-1.837 8.576-3.828 12.252-3.292 7.81 1.225 8.805 1.225 10.643.306 2.144-1.149 2.833-3.216 1.532-4.824-.69-.842-1.302-.919-2.374-.383-.996.536-4.212.46-10.261-.383-4.9-.612-9.954-1.072-11.332-1.072-2.91.153-2.221.307 6.508 1.455 3.676.536 7.275 1.378 8.04 2.068 1.225.995 1.072.995-1.684.459-5.514-1.072-19.526-.689-25.422.842-2.987.766-6.126 1.225-6.892.996-2.144-.46 5.437-3.599 11.639-4.748l5.36-.995h-7.657c-4.211 0-8.729-.383-10.031-.766-1.914-.612-2.527-.536-3.216.689Z" style="fill:#20092d" transform="translate(-25.378 -24.8) scale(.1465)"/></svg>