<svg viewBox="0 0 24 24" xmlns="http://www.w3.org/2000/svg"><!--! IcoNostr 1.0.0 by @bclsocial - https://bcl.social Copyright 2023 Berry Creative - https://berrycreative.ppg.br.--><path d="M10.66 2.273c-.37.051-1.056.205-1.538.358-2.675.83-4.735 2.604-5.945 5.105-.728 1.507-.963 2.552-.963 4.264 0 1.702.235 2.757.963 4.254.502 1.045 1.456 2.408 1.691 2.408.134 0 .277-.481.84-2.685l.278-1.087-.226-.656c-.635-1.834-.502-3.577.42-5.35.902-1.732 2.717-3.055 4.685-3.403 3.218-.574 6.416 1.363 7.441 4.5.349 1.076.4 2.736.103 3.71-.8 2.655-2.88 4.48-5.576 4.869-.964.144-2.163.02-3.045-.318-.276-.102-.584-.195-.666-.195-.4 0-3.792.964-3.792 1.087 0 .184 1.26 1.107 2.152 1.568 3.803 1.978 8.385 1.261 11.439-1.773 3.29-3.27 3.803-8.415 1.24-12.341-2.019-3.106-5.75-4.797-9.502-4.315z"/><path d="M11.12 10.145c-1.608.738-1.557 3.065.073 3.751.717.297 1.65.133 2.224-.39.81-.737.81-2.275 0-3.013-.595-.543-1.558-.687-2.296-.348z"/></svg>