<svg viewBox="0 0 24 24" xmlns="http://www.w3.org/2000/svg"><path d="M18.443 1.633c-.211.096-.426.35-.513.613-.04.12-.08.374-.092.613-.012.338-.004.454.068.684.159.526.553 1.007 1.277 1.557.7.533.916.851.947 1.4.044.745-.226 1.242-.84 1.545-.326.159-.557.187-1.058.12-.338-.045-.414-.045-.609.015a1.619 1.619 0 0 1-.318.064c-.056 0-.378-.171-.725-.378-1.09-.653-1.448-.753-2.71-.757-1.007 0-1.266.04-2.094.323-.537.183-.704.255-1.986.883-.45.22-.943.438-1.094.482-.438.14-.98.203-1.68.203-.724 0-.804.024-.724.23.024.06.064.136.092.168.115.135.111.155-.044.111a.624.624 0 0 1-.211-.091c-.171-.151-.82-.18-1.298-.06-.812.211-1.56.908-1.85 1.735-.096.267-.1.486-.012.522.04.012.187-.036.35-.116.155-.075.342-.155.41-.167.163-.036.167-.012.032.398-.124.382-.132.645-.016.788.044.056.107.104.14.104s.23-.163.44-.358c.264-.247.415-.359.478-.359s.092.016.076.048c-.155.374-.187.92-.06 1 .072.043.104.031.613-.268.426-.25 1.047-.43 1.684-.49.199-.019.227-.007.458.148.135.092.39.235.569.323.39.187 1.36.513 1.906.632.219.052.414.104.43.12.048.044-.287.465-.653.824-.497.485-1.074.935-1.345 1.038-.422.164-.633.41-.74.864-.036.151-.155.358-.478.82-.239.338-.62.88-.848 1.21-1.042 1.488-.999 1.44-1.413 1.532-.27.06-.549.211-.696.374-.147.167-.223.398-.163.506.044.087.103.091.259.036.143-.056.159-.028.06.111-.14.199-.359.685-.403.907a.98.98 0 0 0 0 .43c.044.215.16.374.235.323.024-.012.115-.171.207-.35.183-.37.31-.538.796-1.043.187-.2.438-.51.553-.697.358-.577.868-1.285 1.708-2.368.78-1.007.915-1.166 1.09-1.234.338-.135.605-.414.68-.712.045-.163.092-.207.952-.856l.911-.684.498-.18a8.08 8.08 0 0 1 .533-.175c.044 0-.08.287-.143.339-.032.02-.143.278-.255.569-.223.58-.255.824-.14 1.066a.629.629 0 0 0 .196.215c.203.128.402.104.704-.08.2-.119.574-.254 1.588-.572 1.823-.57 1.887-.59 2.078-.573l.167.011.044.247c.052.287.14.438.282.494.156.06.22-.016.192-.239-.04-.318.015-.318.342.008.306.306.557.466.732.466.135 0 .167-.096.084-.267-.152-.322-.92-1.457-1.051-1.556-.127-.1-.171-.108-.501-.108-.395 0-.22-.047-2.81.772-.494.16-.932.295-.971.307-.1.032-.076-.028.15-.374.136-.203.232-.299.37-.378.287-.156.53-.339.53-.402 0-.032.044-.112.1-.175l.095-.116.669-.024c1.321-.051 2.137-.286 2.806-.816.58-.453.824-1.05.828-2.021 0-.323.016-.498.051-.542.024-.032.235-.175.466-.314 1.035-.629 1.552-1.154 1.982-2.006.295-.59.398-1.33.27-1.926-.147-.697-.493-1.163-1.36-1.831-.542-.418-.657-.55-.681-.776-.024-.211.028-.255.446-.374.219-.06.426-.08.935-.084.82-.012.927-.072.406-.223-.135-.04-.235-.087-.219-.103s.14-.036.27-.044c.18-.008.24-.028.24-.072s-.184-.12-.617-.262c-.502-.164-.68-.243-.936-.414-.51-.347-.812-.422-1.118-.283Z"/></svg>