<svg viewBox="0 0 24 24" xmlns="http://www.w3.org/2000/svg"><path d="M15.581 8.364c-.22.194-.224.289-.018.499.096.097.202.177.237.177.035 0 .141-.08.237-.177.206-.21.202-.305-.018-.499-.178-.156-.26-.156-.438 0m-11.137.478c-.119.053-.411.312-.89.786-.393.389-.714.719-.714.734 0 .015.113.036.252.047.138.011.314.052.39.091.076.04.418.348.761.686.356.352.654.614.697.614.043 0 .348-.27.717-.634.68-.669.828-.766 1.18-.766.142 0 .14-.002-.577-.724-.823-.828-.955-.916-1.38-.915a1.054 1.054 0 0 0-.436.081m6.628.435c-.587.188-.951.551-1.161 1.159-.091.263-.091.27-.091 2.617v2.354l.112.096c.143.123.273.123.416 0l.112-.096.02-2.414.02-2.413.109-.186c.127-.215.305-.376.531-.479.14-.064.276-.073 1.08-.074.885 0 .928.003 1.12.094.226.107.412.29.536.524.077.146.084.225.084.932 0 .874-.014.936-.285 1.23-.327.354-.336.356-1.644.379-1.26.022-1.245.019-1.295.269-.021.107-.006.147.096.249l.122.122h1.015c.78 0 1.069-.014 1.253-.061.744-.191 1.201-.662 1.357-1.4.076-.356.077-1.195.003-1.544-.15-.708-.571-1.166-1.259-1.371-.332-.098-1.931-.089-2.251.013m3.397-.027a.319.319 0 0 0-.087.394c.083.159.197.196.614.196.287 0 .363.013.417.072.057.063.066.273.076 1.823l.011 1.752.094.077c.132.106.331.098.441-.018l.088-.094-.011-1.819-.012-1.819-.121-.195a.766.766 0 0 0-.334-.307c-.197-.103-.249-.112-.662-.112-.296 0-.47.017-.514.05m2.175.035a.306.306 0 0 0 .019.438c.095.089.144.099.6.117l.497.02.768.76c.423.418.774.761.78.763.006.001-.331.343-.75.76-.458.456-.812.776-.889.804-.071.026-.31.048-.532.05-.368.003-.411.011-.49.096-.097.103-.113.29-.032.395.166.22.91.204 1.422-.031.176-.08.375-.254.944-.819.397-.395.747-.718.777-.718.031 0 .381.321.779.713.793.782.943.883 1.441.97.391.068.698.029.812-.103.116-.135.114-.268-.006-.407-.091-.106-.116-.112-.47-.121a3.787 3.787 0 0 1-.474-.034c-.057-.014-.431-.353-.862-.78l-.763-.756.763-.758c.454-.452.802-.767.862-.78a4.59 4.59 0 0 1 .473-.033c.357-.01.379-.016.474-.128a.294.294 0 0 0-.036-.437c-.079-.065-.147-.072-.55-.058-.679.022-.757.068-1.691.989l-.751.739-.749-.745c-.945-.94-.989-.965-1.756-.984-.503-.012-.529-.009-.61.078M2.019 11.163c-.527.533-.636.721-.636 1.097 0 .373.106.554.646 1.107l.471.482.347-.021c.205-.013.4-.05.48-.09.073-.037.403-.333.733-.658.628-.618.708-.68.88-.68.172 0 .252.062.881.683.356.351.662.619.749.655.087.037.267.062.439.062h.292l.468-.47c.52-.523.629-.703.63-1.045.002-.405-.052-.5-.594-1.055l-.499-.51h-.315c-.211 0-.357.021-.443.065-.07.036-.398.33-.728.655-.628.618-.708.68-.88.68-.172 0-.252-.062-.88-.68-.33-.325-.654-.617-.72-.651-.073-.037-.266-.066-.492-.075l-.372-.014-.457.463m2.201 2.191c-.688.679-.825.766-1.207.766-.095 0-.173.015-.173.033 0 .019.323.352.718.742.781.77.924.866 1.293.871.442.005.498-.031 1.341-.864l.773-.762-.193-.025c-.352-.045-.478-.131-1.13-.775-.381-.376-.658-.62-.705-.619-.045.001-.341.261-.717.633M14.6 14.8c0 .067-.027.08-.159.08-.179 0-.265.099-.225.259.029.115.116.15.289.117l.135-.025v-.255c0-.141-.009-.256-.02-.256-.011 0-.02.036-.02.08m.44.177c0 .252.002.257.119.283.24.053.396-.082.322-.277-.033-.087-.064-.103-.2-.103-.134 0-.161-.013-.161-.08 0-.044-.018-.08-.04-.08-.023 0-.04.112-.04.257m4.531-.217c-.095.039-.146.173-.124.325.019.132.184.213.365.179.207-.039.184-.097-.042-.112-.188-.012-.19-.013-.19-.152 0-.136.005-.141.18-.16.099-.011.18-.038.18-.06 0-.053-.256-.067-.369-.02m2.949.243c0 .209.013.279.05.267.032-.01.054-.114.062-.283.01-.219.001-.267-.05-.267-.05 0-.062.054-.062.283m-6.192.007.012.25.21-.002c.265-.002.384-.092.278-.209-.049-.055-.055-.086-.022-.119a.11.11 0 0 0 .021-.107c-.019-.048-.084-.063-.268-.063h-.243l.012.25m4.912-.193a.095.095 0 0 1-.05.08c-.04.018-.04.028 0 .046.028.013.05.085.05.16 0 .112.018.14.102.161.138.035.173-.012.066-.087-.113-.079-.118-.217-.008-.217.044 0 .08-.018.08-.04 0-.022-.036-.04-.08-.04-.044 0-.08-.027-.08-.06s-.018-.06-.04-.06c-.022 0-.04.025-.04.057m-4.53.073c-.025.078-.23.089-.23.013 0-.044.038-.063.123-.063.081 0 .118.017.107.05m-5.705.26c.003.148.014.229.023.18.014-.073.036-.085.115-.066.13.033.297-.078.297-.197 0-.134-.075-.187-.268-.187H11l.005.27m.578-.207c-.084.084-.079.161.017.257.148.148.4.076.4-.113 0-.061-.022-.133-.048-.159-.068-.068-.295-.059-.369.015m.538.037.082.21.044.11.088-.172.088-.172.068.142c.037.078.083.142.102.142.039 0 .176-.324.149-.351-.01-.01-.047.052-.083.137l-.065.154-.078-.15c-.043-.083-.087-.15-.099-.15-.012 0-.049.067-.083.149l-.063.149-.076-.149c-.087-.169-.133-.2-.074-.049m.761-.042c-.026.031-.042.107-.035.169.016.139.18.211.321.141.09-.045.089-.045-.014-.024-.111.024-.274-.039-.274-.105 0-.022.09-.039.2-.039.204 0 .254-.05.152-.152-.066-.066-.292-.06-.35.01m.525.152.007.21.015-.188c.014-.168.026-.189.123-.204.098-.014.096-.017-.022-.022l-.13-.006.007.21m.315-.152c-.026.031-.042.107-.035.169.016.139.18.211.321.141.09-.045.089-.045-.014-.024-.111.024-.274-.039-.274-.105 0-.022.09-.039.2-.039.204 0 .254-.05.152-.152-.066-.066-.292-.06-.35.01m1.936.138c.102.201.095.239-.058.295-.04.015-.03.024.029.026.071.002.116-.048.21-.236a1.59 1.59 0 0 0 .119-.27c-.001-.017-.042.046-.091.141l-.09.171-.091-.161c-.128-.227-.148-.202-.028.034m1.382-.156c0 .022.063.04.14.04.077 0 .14.018.14.04 0 .022-.073.04-.161.04-.177 0-.244.077-.158.181.035.043.104.056.234.045.164-.014.186-.028.197-.119.022-.179-.055-.267-.233-.267-.088 0-.159.018-.159.04m.52.163c0 .242.093.26.113.021.011-.135.022-.148.12-.136.093.01.109.033.12.164.015.186.101.18.12-.008.018-.185-.049-.244-.278-.244h-.195v.203m.598-.119c-.101.189.064.365.279.297.112-.036.106-.108-.007-.081-.049.011-.114.005-.144-.014-.085-.056-.037-.184.074-.199.179-.024.186-.087.009-.087-.128 0-.177.019-.211.084m.442-.005c-.098.183.067.347.304.303.102-.019.142-.051.162-.13.04-.159-.03-.23-.238-.244-.152-.01-.191.002-.228.071m1.494-.048c-.048.03-.067.101-.059.218.007.1.152.162.309.133.181-.034.174-.092-.01-.087-.084.003-.153-.016-.163-.045-.012-.035.032-.05.146-.05.133 0 .163-.014.163-.076 0-.041-.028-.086-.063-.1-.086-.033-.267-.029-.323.007m.514.159c.014.226.087.254.104.04.012-.136.024-.15.128-.15.104 0 .116.015.128.147.018.221.112.222.112.001 0-.205-.031-.228-.305-.228h-.179l.012.19m.992.01c0 .232.069.272.088.05.01-.12.03-.153.102-.163.143-.02.104-.087-.05-.087h-.14v.2m.38-.16c.014.022.077.04.14.04.063 0 .126.018.14.04.015.024-.04.04-.139.04-.179 0-.247.077-.16.181.035.043.104.056.234.045.205-.018.243-.081.168-.279-.036-.095-.062-.107-.224-.107-.112 0-.174.016-.159.04m-10.602.074c.051.161-.086.281-.258.226-.055-.017-.08-.061-.08-.136 0-.142.025-.164.184-.164.092 0 .138.022.154.074m.562.065c0 .093-.023.127-.108.157-.13.046-.232-.022-.232-.154 0-.123.036-.148.199-.134.127.011.141.024.141.131m1.274-.079c.019.048-.013.06-.155.06-.167 0-.216-.03-.152-.093.052-.053.284-.028.307.033m.84 0c.019.048-.013.06-.154.06s-.173-.012-.154-.06c.014-.036.074-.06.154-.06s.14.024.154.06m.546.076c0 .11-.018.14-.097.16-.125.031-.21-.003-.234-.093-.032-.123.044-.203.193-.203.13 0 .138.008.138.136m.833-.006c.009.084-.01.12-.088.155-.151.069-.225.02-.225-.146 0-.142.002-.144.15-.131.13.01.152.027.163.122m4.927-.046c0 .02-.045.036-.1.036-.104 0-.137-.06-.05-.091.064-.022.15.009.15.055m-1.408.063c.016.113-.134.168-.222.08-.091-.091-.033-.195.1-.18.077.009.114.039.122.1m-2.232.033c0 .04-.04.06-.12.06-.08 0-.12-.02-.12-.06 0-.04.04-.06.12-.06.08 0 .12.02.12.06m.59.03c-.019.058-.23.094-.23.039 0-.06.049-.089.15-.089.059 0 .09.019.08.05m4.941.01c-.011.05-.211.078-.211.029 0-.062.053-.093.138-.081.045.007.078.03.073.052" fill-rule="evenodd"/></svg>