<svg viewBox="0 0 24 24" xmlns="http://www.w3.org/2000/svg"><path d="M11.299 1.619a3.521 3.521 0 0 0-.5.161c-.573.241-.728.378-2.91 2.554L5.798 6.42l.511.024c.576.028.861.079 1.21.216.541.212.671.323 2.521 2.161 1.922 1.911 1.916 1.906 2.237 1.82.138-.037.426-.305 1.953-1.815 1.938-1.918 2.027-1.991 2.67-2.21.258-.088.415-.113.81-.127.27-.01.49-.03.49-.045 0-.014-.95-.972-2.11-2.128-1.328-1.323-2.198-2.159-2.347-2.256a3.4 3.4 0 0 0-1.056-.442c-.33-.07-1.065-.07-1.388.001M3.537 8.687c-1.296 1.306-1.516 1.563-1.719 2.007-.36.786-.36 1.827.002 2.617.213.466.457.751 1.751 2.042l1.296 1.293.847-.004c1.003-.006 1.197-.035 1.646-.25.336-.161.364-.186 2.14-1.951 2.076-2.061 1.968-1.98 2.64-1.981.675 0 .59-.064 2.66 1.994 2.243 2.23 2.102 2.143 3.52 2.175l.82.018 1.344-1.353c1.147-1.155 1.372-1.401 1.531-1.674a3.194 3.194 0 0 0 .001-3.24c-.159-.274-.379-.514-1.52-1.66l-1.333-1.34-.792.012c-.922.014-1.11.043-1.502.237-.266.132-.432.285-2.089 1.93-1.904 1.891-1.934 1.915-2.393 2.004-.248.048-.528.016-.827-.093-.201-.074-.369-.229-1.98-1.831C7.73 7.8 7.535 7.634 7.043 7.473c-.232-.076-.378-.088-1.223-.103l-.96-.016-1.323 1.333m8.302 4.739c-.054.036-.873.835-1.819 1.776-1.793 1.783-1.976 1.94-2.492 2.133-.452.169-.568.19-1.162.214l-.574.022 1.974 1.979c1.086 1.088 2.105 2.084 2.266 2.214.583.47 1.21.686 1.988.685.401 0 .538-.017.832-.105a3.027 3.027 0 0 0 1.008-.486c.132-.095 1.164-1.098 2.294-2.229l2.053-2.057-.423-.027c-.688-.045-1.326-.27-1.804-.637-.088-.068-.916-.874-1.84-1.791-.924-.917-1.719-1.688-1.767-1.712-.129-.066-.421-.055-.534.021" fill-rule="evenodd"/></svg>