<!-- Generated by IcoMoon.io -->
<svg version="1.1" xmlns="http://www.w3.org/2000/svg" width="1024" height="1024" viewBox="0 0 1024 1024">
<title></title>
<g id="icomoon-ignore">
</g>
<path fill="#000" d="M512.811 364.672c-1.365 12.331-1.365 22.827-0.427 23.723 2.261 2.304 48.811 9.6 50.645 8.235 0.427-0.896 2.261-13.227 4.096-27.392l3.2-26.027h-54.784l-2.731 21.461zM212.864 475.605v123.264h50.219v-246.528h-50.219v123.264zM783.531 386.133c0 29.227-0.427 30.123-11.435 30.123-10.027 0-11.392 1.835-11.392 18.261s1.365 18.261 11.392 18.261h11.435v65.707c0 79.915 0 80.384 46.080 80.384h31.531v-18.261c0-17.365-0.896-18.261-13.696-18.261h-13.696v-109.568h13.696c12.8 0 13.696-0.896 13.696-18.261s-0.896-18.261-13.696-18.261c-13.227 0-13.227-0.427-14.592-28.757l-1.408-28.331-47.915-2.731v29.696zM109.696 428.117l-15.531 16.427-2.731-14.123c-2.731-13.696-4.096-14.165-25.131-14.165h-22.357v241.963h50.219v-44.757c0.427-42.88 0.427-43.819 7.765-31.957 13.227 21.461 36.992 27.392 60.245 15.061 20.096-10.027 25.6-29.653 25.6-91.307 0-46.080-1.408-57.045-8.704-69.376-17.792-28.757-46.549-31.957-69.376-7.765zM132.523 462.805c5.035 6.827 7.296 20.565 7.296 43.392 0 43.349-5.035 56.149-21.931 56.149-6.827 0-15.061-2.261-18.261-5.461-7.253-7.339-7.253-91.307 0-98.645 8.704-8.661 25.131-6.4 32.853 4.565zM323.797 420.352c-29.227 13.227-35.627 29.227-35.627 87.211 0 39.68 1.408 50.688 9.131 63.915 29.227 50.219 115.968 39.253 132.395-17.365 2.773-9.557 1.835-10.027-21.888-10.027-20.992 0-25.131 1.365-27.392 9.131-1.835 6.827-6.4 9.131-17.792 9.131-19.627 0-26.496-6.827-26.496-26.027v-15.061h97.28l-2.304-31.061c-1.365-16.896-5.973-37.419-10.069-45.653-9.131-17.792-37.888-32.853-62.080-32.853-8.661 0-24.661 4.096-35.157 8.661zM376.277 458.24c3.2 3.2 5.504 12.373 5.504 20.565 0 15.061 0 15.061-22.827 15.061-21.461 0-22.827-0.896-22.827-11.861 0-18.731 8.235-29.227 21.931-29.227 7.253 0 15.061 2.261 18.261 5.461zM459.861 490.24c-5.504 43.349-10.965 84.437-12.373 90.837-2.261 11.861-1.792 12.331 32.427 17.323 46.592 6.827 73.088 6.4 88.576-1.835 13.227-6.4 23.296-26.453 23.296-45.184 0-12.8-11.861-29.653-24.661-34.688-9.131-3.669-9.131-3.669 3.669-8.661 18.731-7.339 25.088-17.835 25.557-40.661 0-15.488-2.731-21.888-11.861-30.592-6.827-6.4-13.696-11.392-15.061-11.392s-22.4-3.2-46.123-6.827-45.653-6.869-48.384-6.869-8.661 32.427-15.061 78.507zM545.195 458.24c3.423 4.029 5.504 9.291 5.504 15.038 0 0.008 0 0.016 0 0.024v-0.001c0 12.8-8.661 20.565-22.357 20.565-17.835 0-21.931-5.035-19.627-24.192 1.792-15.531 3.157-16.896 16.427-16.896 8.192 0 16.896 2.261 20.053 5.461zM540.203 534.059c6.4 7.723 3.2 28.288-5.035 34.219-4.565 3.2-33.792 1.365-37.419-2.731-0.939-0.939-0.427-10.965 0.896-22.827l2.731-20.565 16.896 2.304c9.131 1.365 19.2 5.461 21.931 9.6zM652.971 416.725c-20.565 5.931-34.688 23.253-36.992 46.080-1.835 17.365-0.427 22.4 10.496 35.157 7.296 8.704 23.296 20.096 36.096 25.6 27.392 12.288 36.053 21.419 31.957 33.749-5.504 17.835-34.261 14.635-34.261-4.096 0-7.765-3.2-9.131-22.827-9.131-21.461 0-22.827 0.896-22.827 11.392 0 37.931 55.68 60.757 98.603 40.661 21.461-10.496 29.227-22.827 29.227-47.957 0-26.453-13.227-44.288-41.984-56.619-34.731-15.061-46.123-32.853-27.392-42.88 9.557-5.035 23.723 1.365 23.723 10.923 0 5.035 5.973 6.869 22.827 6.869 26.027 0 27.861-3.669 13.696-26.453-15.061-24.235-46.080-33.365-80.341-23.296zM953.813 418.56c-5.782 4.594-10.095 10.812-12.264 17.961l-0.067 0.257c-3.627 15.104-11.861 10.539-11.861-7.253 0-12.8-0.427-13.269-22.827-13.269h-22.827v182.613h44.757l1.365-58.88c1.792-65.749 6.4-76.245 33.28-78.976 13.739-1.408 14.165-2.304 15.573-25.6 1.365-20.523 0.427-23.723-6.827-23.723-4.608 0-12.8 3.2-18.304 6.827zM477.653 632.661c0 3.2-1.365 15.531-2.731 27.392l-3.2 20.992h54.784l3.2-23.296c1.835-12.8 2.731-23.723 1.835-24.661-6.917-1.417-16.258-2.858-25.709-3.939l-1.683-0.157c-21.035-2.261-26.496-1.365-26.496 3.669z"></path>
</svg>
