<svg viewBox="0 0 24 24" xmlns="http://www.w3.org/2000/svg"><g transform="translate(20.812 -17.96) scale(.06232)"><circle r="30" transform="scale(-1 1)" cx="-77" cy="113"/><path d="m72 108.5 56 56" stroke="#000" stroke-width="15"/><circle cx="322" cy="113" r="30"/><path d="m327.5 108.5-56 56" stroke="#000" stroke-width="15"/><path fill-rule="evenodd" clip-rule="evenodd" d="M85.515 292.019c-16.169-7.698-25.579-24.983-22.427-42.612C76.618 173.747 133 117 200.5 117c67.663 0 124.155 57.023 137.509 132.958 3.106 17.66-6.381 34.937-22.605 42.572C280.687 308.868 241.91 318 201 318c-41.335 0-80.493-9.323-115.485-25.981Z" fill="#FFDF6F"/><path d="m338.009 249.958 7.387-1.299-7.387 1.299Zm-22.605 42.572-3.194-6.786 3.194 6.786ZM70.471 250.728C83.544 177.62 137.582 124.5 200.5 124.5v-15c-72.082 0-130.809 60.375-144.795 138.587l14.766 2.641ZM200.5 124.5c63.069 0 117.218 53.379 130.122 126.757l14.774-2.598C331.592 170.166 272.758 109.5 200.5 109.5v15Zm111.71 161.244C278.472 301.621 240.783 310.5 201 310.5v15c42.037 0 81.902-9.386 117.597-26.183l-6.387-13.573ZM201 310.5c-40.196 0-78.255-9.064-112.261-25.253l-6.447 13.544C118.269 315.918 158.526 325.5 201 325.5v-15Zm129.622-59.243c2.49 14.159-5.091 28.219-18.412 34.487l6.387 13.573c19.128-9.002 30.52-29.497 26.799-50.658l-14.774 2.598Zm-274.917-3.17c-3.777 21.124 7.525 41.629 26.587 50.704l6.447-13.544c-13.276-6.32-20.795-20.387-18.268-34.519l-14.766-2.641Z"/><path fill-rule="evenodd" clip-rule="evenodd" d="M114.365 273.209c-13.015-5.301-20.736-19.149-16.226-32.459C112.047 199.704 152.618 170 200.5 170c47.882 0 88.453 29.704 102.361 70.75 4.51 13.31-3.211 27.158-16.226 32.459C260.053 284.035 230.973 290 200.5 290c-30.473 0-59.553-5.965-86.135-16.791Z"/><ellipse cx="235" cy="234" rx="25" ry="20" fill="#fff"/><ellipse cx="163.432" cy="234.012" rx="25" ry="20" fill="#fff"/></g><path d="M15.573 12.268s.703-3.113 2.187-5.104l5.07-.212s-2.47 2.319-3.186 3.576l2.96-.22s-4.671 3.34-6.241 6.74c0 0-.341-2.799 1.26-4.991l-2.05.211Zm-6.3-3.985s-.87.375-1.87 1.143c-1 .767-1.554 1.637-1.554 1.637s.303.025.207.174c-.097.149-.373.413-.373.413s.507.331 2.006.983c1.499.652 1.715.765 1.732.706.02-.058.707.118.707.118s-1.793-1.021-2.694-1.826c0 0 .217-.189.762-.377.545-.189.834-.241.844-.309.01-.067-.166-.096-.166-.096l.631-.195s-1.208-.046-2.492.243c0 0 .606-.962 1.244-1.444s.912-.61.922-.702c.01-.093-.139-.15-.139-.15s.036-.18.234-.318Z"/><path d="M5.041 9.83s-.753.814-1.522 2.002c-.768 1.189-1.77 2.709-1.53 2.862.24.153.619.096.619.096s-.05.17.061.185c.112.014.916-.663 1.871-1.028.956-.366 1.718-.572 1.739-.67.02-.101-.293-.16-.274-.16.017 0 .358-.086.383-.197.028-.11-.22-.16-.595-.115-.375.044-2.055.545-2.055.545s1.232-2.21 1.916-3.113c.684-.904.907-1.08.905-1.216-.002-.136-.564-.12-.564-.12s-.074-.155-.156-.157c-.082-.002-2.168.095-3.618.378-1.45.283-1.032.3-.874.432.156.134-.086.404-.086.404s.711-.03.7.117c-.01.147-.23.313-.23.313s1.687-.461 3.31-.558ZM9.9 8.415s.24 1.27.318 2.38c.078 1.109.004 2.096.06 2.13.056.033.542-.17 1.175-.101.634.069 1.103.09 1.156.027.052-.063.002-.21.002-.21s.122.02.145-.067c.023-.086-.095-.178-.095-.178s0-.872-.05-1.93a7.82 7.82 0 0 0-.375-1.984s-.214 3.56-.276 3.774c0 0-.585-.202-1.035-.162 0 0-.255-1.444-.465-2.438-.21-.993-.27-1.19-.32-1.18-.044.008-.084.193-.084.193L9.9 8.415Z"/><path d="M17.415 10.16s-1.675-.946-2.755-1.202c-1.08-.256-1.284-.199-1.202-.138.082.059.28.172.28.172s-.73-.017-.665.073c.065.09.274.774.27 1.49-.005.717-.005 1.208.037 1.227.042.019.415-.013.415-.013s-.093.145-.004.16c.088.014.515-.076.968-.046.452.029.66.085.66.085s.045.988-.235 1.717c0 0-2.126-.849-2.197-.756-.072.09.054.293.054.293l-.82.333s1.12.218 2.043.585c.924.367 1.455.682 1.54.65.087-.031.232-.43.464-1.633.231-1.203.101-1.796.01-1.868-.202-.157-2.29-.067-2.29-.067s.095-.85.02-1.365c.002-.002.09-.318 3.407.302Z"/></svg>